<?xml version="1.0" standalone="no"?>
<!DOCTYPE svg PUBLIC "-//W3C//DTD SVG 20010904//EN"
 "http://www.w3.org/TR/2001/REC-SVG-20010904/DTD/svg10.dtd">
<svg version="1.0" xmlns="http://www.w3.org/2000/svg"
 width="700.000000pt" height="700.000000pt" viewBox="0 0 700.000000 700.000000"
 preserveAspectRatio="xMidYMid meet">
<metadata>
Created by potrace 1.14, written by Peter Selinger 2001-2017
</metadata>
<g transform="translate(0.000000,700.000000) scale(0.100000,-0.100000)"
fill="#000000" stroke="none">
<path d="M226 6988 c4 -7 183 -190 398 -406 215 -216 551 -554 746 -752 195
-197 693 -699 1105 -1115 413 -416 991 -1000 1286 -1297 l535 -541 59 54 c32
30 66 61 74 69 14 14 226 192 312 264 152 125 588 435 794 562 138 85 235 143
285 170 30 16 57 31 60 34 14 14 516 269 620 314 129 57 287 123 392 165 l108
43 -168 58 c-92 32 -273 95 -402 140 -129 45 -246 86 -260 90 -14 4 -117 40
-230 80 -113 39 -221 76 -240 82 -19 6 -39 14 -45 18 -5 4 -21 10 -35 13 -14
2 -65 19 -115 37 -49 18 -185 65 -301 105 l-210 73 19 -56 c10 -32 21 -66 23
-77 2 -11 8 -42 13 -70 12 -60 7 -240 -7 -310 -66 -317 -309 -582 -612 -669
-90 -25 -110 -28 -220 -32 -184 -5 -343 40 -495 141 -170 113 -292 274 -353
465 -20 62 -24 82 -38 160 -7 44 -7 185 0 225 3 17 8 46 11 65 16 97 70 224
134 318 56 82 164 192 234 236 32 21 57 39 55 41 -2 1 -133 51 -293 110 -159
59 -402 149 -540 200 -237 88 -312 116 -543 201 -53 20 -209 78 -347 129 -137
51 -344 127 -460 169 -115 43 -219 81 -230 86 -11 5 -51 20 -90 34 -38 14 -99
36 -135 49 -36 13 -238 88 -450 166 -212 78 -400 148 -418 157 -25 10 -31 11
-26 2z"/>
<path d="M26 6650 c67 -197 252 -737 257 -750 3 -8 20 -58 37 -110 18 -52 57
-167 87 -255 31 -88 88 -257 128 -375 41 -118 122 -354 180 -525 136 -396 253
-740 300 -880 20 -60 39 -117 42 -125 29 -79 146 -420 150 -438 8 -36 19 -34
48 6 63 85 192 190 300 244 63 32 195 74 259 82 55 8 194 8 243 2 305 -43 573
-256 687 -546 88 -222 83 -483 -12 -693 -108 -238 -327 -421 -582 -488 -122
-31 -312 -31 -420 1 -19 5 -38 10 -42 10 -3 0 27 -98 68 -217 42 -120 84 -243
94 -273 10 -30 50 -149 90 -265 39 -116 94 -275 121 -355 27 -80 54 -154 59
-165 4 -11 11 -29 13 -40 3 -11 41 -125 85 -253 63 -182 83 -229 90 -215 5 10
29 63 52 118 89 210 286 606 389 780 10 17 29 50 43 75 130 233 408 647 601
895 43 55 88 113 100 129 12 16 27 34 32 40 6 6 30 36 55 66 25 30 47 57 50
60 3 3 36 41 75 85 92 105 132 149 240 262 50 52 92 99 93 104 2 6 -137 152
-310 325 -172 173 -482 485 -688 694 -489 494 -1758 1774 -2474 2495 l-566
570 26 -75z"/>
<path d="M5259 3194 c-158 -106 -477 -347 -509 -385 -3 -3 -43 -39 -90 -80
-338 -296 -684 -703 -963 -1131 -36 -57 -37 -58 -14 -62 54 -12 174 -36 197
-40 33 -6 805 -163 840 -171 8 -2 53 -11 100 -20 47 -10 90 -23 96 -29 9 -9
28 -97 79 -361 3 -18 70 -353 79 -400 3 -11 26 -126 51 -255 26 -129 49 -237
52 -240 2 -3 171 164 375 370 203 206 588 595 855 863 267 269 483 490 481
492 -2 3 -470 99 -673 139 -109 22 -580 118 -581 120 -3 3 -237 1184 -241
1216 -3 19 -8 38 -12 43 -4 4 -59 -27 -122 -69z"/>
</g>
</svg>
