<?xml version="1.0" encoding="UTF-8"?>
<svg id="Spill_Ver" data-name="Spill Ver" xmlns="http://www.w3.org/2000/svg" viewBox="0 0 1500 1500">
  <defs>
    <style>
      .cls-1 {
        fill: none;
        stroke: #231f20;
        stroke-miterlimit: 10;
        stroke-width: 3px;
      }
    </style>
  </defs>
  <path class="cls-1" d="m386.79,825.88c1.18.99,2.49,2.01,3.97,3.12,0,0,2.63,2.74,7.31,7.65"/>
  <path class="cls-1" d="m431.56,709.57c-26.51,24.29-44.19,42.8-49.53,48.63-14.92,16.3-8.48,21.03-6.53,39.6.83,7.88,1.57,13.09,3.05,17.16"/>
  <path class="cls-1" d="m400.92,839.64c39.68,41.74,182.94,193.88,201.12,233.82,21.13,46.42,68.63,87.71,110.42,85.52,25.68-1.34,30.47,1.07,34,15.66,2.34,9.67,74.75,8.64,172.68-39.72,96.44-47.67,143.56-104.15,137.36-111.94-9.35-11.74-8.32-17.01,8.51-36.45,27.38-31.65,23.94-94.48.27-139.66-23.67-45.18-63.28-316.85-63.28-316.85.28-14.77-1.8-18.26-15.26-31.19-13.46-12.93-13.24-20.92-35.26-19.15-22.03,1.77-181.67,18.9-312.17,83.14-80.65,39.19-152.78,97.05-200.65,140.31"/>
  <path class="cls-1" d="m1010.67,586.69s8.08-1.38,9.38-13.51c1.29-12.13,26.44-81.58,68.13-111.17,0,0-6.4-7.71-7.65-15.64-1.25-7.93,3.88-6.17,12.83-3.98-3.89-7.95-4.39-26.43-2.86-35.39,1.53-8.96,5.58-4.04,8.42,3.11,2.84,7.15,27.3,46.42,36.89,51.26,9.59,4.83,10.32,8.4,15.31,14.52-2.7-5.23-.61-15.25,4.93-20.81,5.48-5.49,6.52,24.07,10.41,32.02,3.89,7.95,26.65,41.69,28.33,57.08s16.53,54.05,10.02,74.8c-6.51,20.75-72.87,120.77-80.47,166.36,0,0,18.41-4.73,10.01,4.08-8.4,8.81-22.04,17.62-22.04,17.62,0,0,4.36,11.54-1.65,11.49s-11.61-7.14-11.61-7.14c0,0-28.55,21.29-42.02,13.32"/>
  <path class="cls-1" d="m1088.17,462.01s4.42,3.38,10.43,4.53"/>
  <path class="cls-1" d="m1105.43,467.96c4,1.22,7.28,1.89,7.28,1.89"/>
  <path class="cls-1" d="m1125.08,471.96c8.18,2.81,29.71,10.65,35.18,21.82,5.46,11.17,10.93,22.34,10.93,22.34,0,0-16.43-8.07-13.65-2.85,2.78,5.22,6.51,5.89,8.12,9.19,1.61,3.3,7.97,5.63,12.24,7.4,4.27,1.77,5.32,7.16,5.32,7.16"/>
  <path class="cls-1" d="m1117.56,792.3c2.37-1.99,6.79-6.96,6.79-6.96"/>
  <path class="cls-1" d="m1113.45,796.92s.89-.75,2.03-2.04"/>
  <path class="cls-1" d="m1041.37,759.53s11.43-9.71,12.81-1.57c1.38,8.13-5.83,22.87.76,23.25,6.59.38,20.58.74,27.93-12.06,7.35-12.8,20.77-39.79,23.72-54.64,2.94-14.85,50.18-91.8,52.41-99.1,2.24-7.3,6.92-37.01-7.2-69.14-14.11-32.13-28.4-47.93-49.29-41.26-20.89,6.67-41.72,80.46-38.44,100.12,1.78,10.71-16.87,5-21.73,10.02"/>
  <path class="cls-1" d="m1055.3,682.14c-3.71,17.15-27.35,7.44-27.35,7.44"/>
  <path class="cls-1" d="m1036.46,682.81s11.13,5.44,23.74-4.05c15.28-11.49,3.16-17.44-2.78-16.71,0,0,9.06-4.63,2.81-6.93-6.25-2.29-14.14-3.99-19.96-16.33-5.82-12.33-1.71-19.02,5.07-27.89,6.78-8.87,9.71-6.53,10.61-16.98"/>
  <path class="cls-1" d="m1028.66,693.53s.84,1.44,6.12-1.95"/>
  <path class="cls-1" d="m426.52,807.3c17.85-3.99,136.01-33.6,280.89-105.24"/>
  <path class="cls-1" d="m408.35,810.28c3.49-.07,7.31-.71,11.03-1.44"/>
  <path class="cls-1" d="m394.46,775.47c-3.65,9.73-2.45,22.69,1.99,29.86"/>
  <path class="cls-1" d="m954.29,501.64c9.92,3.09,19.41,11.99,22.35,19.9,2.93,7.91-5.58,15.34-13.14,21.84-7.56,6.5-107.93,87.02-259.27,160.24"/>
  <path class="cls-1" d="m739.73,685.85s-65.12-3.47-77.6,0c-12.48,3.47-73.94-17.33-85.95-18.95s-161.09,50.64-198.17,44.19c-37.07-6.45-92.69-5.24-81,32.64,11.69,37.88,2.38,45.13-4.38,51.09s-9.14,10.34-2.78,24.25c6.36,13.92.88,39.6-33,65.6-17.1,13.12-16.3,34.19-18.69,38.96s-36.18,52.48,3.18,57.25,42.94-16.7,40.55-40.95c-2.39-24.25,15.51-47.71,27.43-47.31s12.32-6.36,18.69-15.9c6.36-9.54,20.87-36.94,64.29-34.19,18.81,1.19,14.48-27.23,34.34-35.28"/>
  <path class="cls-1" d="m196.02,997.2c6.5,4.85,21.07,5.57,17.89-10.73s-7.16-24.25-15.11-9.54-5.87,17.97-2.78,20.28Z"/>
  <path class="cls-1" d="m209.89,1050.11c-9.62-6.45-7.98-32.84,9.51-25.78s25.17-2.15,25.78,9.21-5.52,36.52-35.29,16.57Z"/>
  <path class="cls-1" d="m247.03,714.68c-4.59-10.7,1.23-16.94,14.73-12.61s18.11,13.84,4.6,21.21-12.89,6.44-19.33-8.59Z"/>
  <path class="cls-1" d="m318.24,831.1c-8.59,1.53-10.45-14.53-2.47-15.45s19.33-6.44,12.28,4.6c-7.06,11.05-9.8,10.85-9.8,10.85Z"/>
  <path class="cls-1" d="m440.03,777.07c-15.68,15.29-42.44,48.45-80.67,45.25s-30.2,40.77-42.44,47.65c-12.23,6.88-28.29,12.23-35.94,22.94"/>
</svg>