<?xml version="1.0" encoding="utf-8"?>
<!-- Generator: Adobe Illustrator 27.2.0, SVG Export Plug-In . SVG Version: 6.00 Build 0)  -->
<svg version="1.1" xmlns="http://www.w3.org/2000/svg" xmlns:xlink="http://www.w3.org/1999/xlink" x="0px" y="0px"
	 viewBox="0 0 1500 1500" style="enable-background:new 0 0 1500 1500;" xml:space="preserve">
<style type="text/css">
	.st0{display:none;}
	.st1{display:inline;fill:none;stroke:#000000;stroke-width:3;stroke-miterlimit:10;}
	.st2{fill:none;stroke:#000000;stroke-width:3;stroke-miterlimit:10;}
</style>
<g id="Dish" class="st0">
	<ellipse class="st1" cx="747.8" cy="1149.9" rx="429.3" ry="123.3"/>
</g>
<g id="Base_Ver" class="st0">
	<path class="st1" d="M1027.4,1017.8c12.9,1.9,39.4,2.2,75.9-15.2c53-25.2,115-68.8,152.8-115.5c37.8-46.7,26.8-157-55.1-163.8
		c-66.5-5.5-89.2,26.6-95.5,38.9"/>
	<path class="st1" d="M1096.9,815.3c11.6-0.3,19.9-5.5,47.5-28.5c31.5-26.2,80.8-7.6,82.1,20.1c1.3,28.4-9.3,64-77.3,110.2
		c-69.1,47-79.4,35.7-94.1,48.1c-1.4,1.2-1.2,1.6-2.4,1.7"/>
	<path class="st1" d="M1114.5,700.4c-101.4-114.6-286.5-110-357.6-110.5v-0.1c-1,0-2,0-3.1,0c-1,0-2.1,0-3.1,0v0.1
		c-71.1,0.4-254.8-9.1-359.7,108.5c-22.1,24.7,8.5,49.2,10.2,56.2c1.7,7,31.8,337.7,222.2,385.3c65.2,16.3,117.5,15,130.4,14.3
		c12.9,0.7,65.2,2,130.4-14.3c190.4-47.6,220.4-378.3,222.2-385.3C1108.2,747.6,1136.5,725.2,1114.5,700.4z"/>
	<path class="st1" d="M617.5,1138.7c0,0-0.9,4.2,2.3,7.4c1.6,1.6,4.5,3.4,9.9,5.8c13.9,6.1,56.9,20.7,123,19.6"/>
	<path class="st1" d="M887.8,1138.7c0,0,0.9,4.2-2.3,7.4c-1.6,1.6-4.5,3.4-9.9,5.8c-13.9,6.1-56.9,20.7-123,19.6"/>
	<path class="st1" d="M1050.4,660.7c22,11.8,80.9,51,52.5,77.4c-2.6,2.4-6.1,4.6-10.3,6.8c-52.1,26.6-228.2,68.3-337.5,67v0
		c-109.6,0.6-286-41.2-337.9-67c-47-23.4,13.5-67.6,37.4-80.4"/>
</g>
<g id="Tea" class="st0">
	<path class="st1" d="M1092.6,744.9c7.8-3.7,10.1-10-2-18.6S999.3,643,774.7,643c-5.7,0-11.2,0.1-16.4,0.4
		c-5.2-0.2-10.6-0.4-16.3-0.4c-224.6,0-303.2,75.9-315.4,84.4c-12.5,8.7-11.2,14.8-2.1,21"/>
	<path class="st1" d="M605.8,703.3c23-7.8,101.8-25.3,187.8-17.1"/>
	<path class="st1" d="M863.7,696c4.6,0.7,23.4,3.3,43.3,11"/>
	<path class="st1" d="M496.8,761.3c-8.7-1.6-27.4-7.6,10.8-23.7"/>
</g>
<g id="Steam" class="st0">
	<path class="st1" d="M1061.1,644.7c-25.1-73.5-160.9-127.4-223-128.2c-62.1-0.8-86.4-15.4-152.5-42.4c-66.1-27-48.1-59-44.6-64.3
		c3.4-5.3,54.4-14,71.8-18.5c17.4-4.5,92.3-14,107.7-14.8c15.4-0.8,40.4-10.3,57-24.9c16.6-14.6,13-28.8,5.9-40.6
		c-7.1-11.8-58-19.7-79.3-21.7c-21.3-2-51.5,1-40.6-26.8c11-27.8,35.7-31.4,50.1-32.7c14.4-1.2,13.4-11.6,2.6-18.3
		c-10.7-6.7-3.2-24.5-12.2-21.5c-27.5,9.4-13.4-18.5-47.7-3.7c-27,11.7-22.1,25.8-18.9,31.2c-0.1-2.4,1.9-7.5,11.9-17.6
		c18-18.4,35.5-6.3,49.7,11.3c14.2,17.5-41.3,9.6-62.6,46.3s-7.1,32.2,36.7,39.3c43.8,7.1,25.9,42.6-8.8,68.5
		c-34.7,25.9-74.8,7.4-85.5,5.5c-10.6-1.9-38.8-19.1-44.2-15.3c-5.3,3.8-13.5,8.5-33.5,2.2c-20-6.3-51.4-18.5-50.1,26.9
		c1.3,45.4,69.8,99,102.7,136.2c32.9,37.3,8.8,102.1-15.4,132c-24.1,29.9-88.2,14.8-103.3,14.2c-15.1-0.6-76,7.1-98.8,38
		c-22.9,30.9,4.4,49.6,4.4,49.6c52.1,18,97.7,28.3,133.3,35.3c51,10,92.6,15.8,124,18.7c7.7,0.7,14.9,1.3,21.9,1.7
		c3.3,0.2,29.4,1.7,55.2,1.2c24.8-0.6,44.6-2.1,83.4-7.4c19.5-2.7,45.4-7.5,76-12.7c0,0,104.9-24.2,131.7-35.3
		C1093,745.1,1086.2,718.3,1061.1,644.7z M640.8,470.5c-35.6-15.8-56.4-32.4-57.8-61.1c-1.4-28.6,31.7-14.7,43.8-8.7
		c0,0-5.8,7.1-4.3,24.5c2.9,33.8,64.5,63.9,64.5,63.9S664.1,480.9,640.8,470.5z M822.9,570.3c-2.8,0.4-9.6-7.4-17.3-12
		c-7.7-4.6-20.5-12-20.5-12c13.9,3.8,30.9,2.5,34.1,5.9S825.7,569.9,822.9,570.3z M831.4,577c-8-6.2-3.3-16.7,0-18.1
		c3.3-1.3,3.3-1.3,3.3-1.3c14.3,6.7,36.6,27.2,39.5,59.8C874.2,617.4,839.4,583.2,831.4,577z"/>
</g>
<g id="Spill_Ver">
	<path class="st2" d="M402.9,577.2c-9.1-5.5-18.7-10.6-32.9-39.7c-18-36.9-65.5-34.4-81.7-21c-21.9,18.1-18.5,73.4,25.4,132.2
		c49.9,67,57.8,65.1,66.1,82.4c0.9,1.8,0.3,1.4,1.5,2.1"/>
	<path class="st2" d="M384.8,802.9c-13.2-4.4-31.7-12-55.7-40.2C291,718,240.9,641.1,225.6,583c-15.3-58.1,43.1-150.4,120.6-123.1
		c38.7,13.7,64.8,41.6,73.1,58.1"/>
	<path class="st2" d="M1073.4,805.3c-3.2,3.2-6.8,6.1-10.9,8.7c-0.9,0.6-1.8,1.1-2.7,1.5"/>
	<path class="st2" d="M1067.1,699.5c23.4,28.7,41,65.8,23.7,89.2"/>
	<path class="st2" d="M1055.2,818.7c-32.4,52.2-180.3,279.8-353.4,248.7c-66.1-11.9-113.3-34.5-124.8-40.4
		c-12-4.7-60.3-24.9-113-66.5c-154.2-121.5-46-435.4-44.7-442.5c1.3-7.1-15.4-39.1,14.8-52.7c139.5-63,306.4,17.1,371.4,45.8l0-0.1
		c0.9,0.4,1.8,0.8,2.8,1.3c1,0.4,1.9,0.8,2.8,1.2l0,0.1c53.3,24.4,178.1,72.2,247.2,173"/>
	<path class="st2" d="M708.1,1069.3c0,0-0.9,4.2-5.1,5.8c-2.1,0.8-5.5,1.3-11.4,1.2c-15.2-0.2-60.4-4.4-120.3-32.6"/>
	<path class="st2" d="M461.5,958.4c0,0-2.6,3.4-0.9,7.6c0.8,2.1,2.7,5,6.6,9.3c10.2,11.3,43.4,42.2,104.2,68.3"/>
	<path class="st2" d="M1060.7,789.5c41.7-15.4,0.7-75.7-14.9-96"/>
	<path class="st2" d="M1016,795.7c8.9,0.1,16.7-0.4,23.6-1.4"/>
	<path class="st2" d="M508.9,455.4c-24.9,1.8-94.7,13.4-79.6,49.1c1.4,3.3,3.7,6.7,6.6,10.4c36.6,45.6,180.1,155.8,280.4,199.5l0,0
		c74.5,33.9,187.5,60.9,266.7,71.8"/>
	<path class="st2" d="M1223.4,682.6c0.6,11.2-5.6,19.6-14.7,16.1c-9.1-3.5-17.5-10.3-11-16.1c6.5-5.8,12.4-5.4,14.9-8.9
		C1215.3,670.3,1223,673.5,1223.4,682.6z"/>
	<path class="st2" d="M1149.4,791.9c7.8,1.5,11.3,7.7,6.1,8.9s-9.2-3.1-13.6-4.5c-4.4-1.4-1.7-11.7,2.9-8.1
		C1149.4,791.9,1145.9,791.2,1149.4,791.9z"/>
	<path class="st2" d="M1264.3,980.5c7.9,0,11.1-9,7.6-17.3c-3.5-8.3-7.6-15.4-13.7-1.9S1246.3,980.5,1264.3,980.5z"/>
	<path class="st2" d="M1239.2,1008c14.2-4.3,34.2-3.4,25.1,22.2c-6.9,19.3-32.2,15.3-42.8-10.3c-1.8-4.2-0.2-13,13-11.4L1239.2,1008
		z"/>
	<path class="st2" d="M982.6,786.1c18.3,7.2,66.3,36.3,93.5,37c27.2,0.6,43.8,7.5,48.5,11.3s24.4,35.4,29.1,39.8s11.3-1.6,25.1,14.1
		c13.8,15.7,4.7,47.9,10.3,61.1c5.6,13.2,20.7,16.6,42.9,11.9s15-66.4-7.2-82.1c-22.2-15.7-50.1-66.1-51.4-78.1
		c-1.3-12,17.2-12.8,8.8-19c-18.2-13.5-18.8-56.1-12.2-65.8c6.6-9.7,6.2-13.1-5.7-26.9c-11.9-13.8-12.2-1.6-30.7-8.8
		c-20.7-8.1-40.4,6.3-58.3,8.5c-17.9,2.2-99.3-32.9-144.7-33.8c-45.4-0.9-52.5,17-88.9,8.7c-36.4-8.3-193.7-4.6-221.5-2"/>
	<path class="st2" d="M968.4,769.1c21.9,1,101.5,31.6,112.8,31.9c11.2,0.3,41.8-8.7,49.6,0c7.7,8.7,8.7,7.1,11,17.1
		c2.3,10,5.5,34.1,29,40.9c23.5,6.8,29.6,29.6,29.6,29.6"/>
	<path class="st2" d="M804.3,689.7c-23.5-2.2-101-5.3-137.4,0"/>
</g>
</svg>
