<?xml version="1.0" encoding="utf-8"?>
<!-- Generator: Adobe Illustrator 24.0.2, SVG Export Plug-In . SVG Version: 6.00 Build 0)  -->
<svg version="1.1" id="Layer_1" xmlns="http://www.w3.org/2000/svg" xmlns:xlink="http://www.w3.org/1999/xlink" x="0px" y="0px"
	 viewBox="0 0 350 600" style="enable-background:new 0 0 350 600;" xml:space="preserve">
<style type="text/css">
	.st0{fill:none;stroke:#121212;stroke-width:2;stroke-miterlimit:10;}
	.st1{fill:none;stroke:#121212;stroke-miterlimit:10;}
	.st2{fill:none;stroke:#121212;stroke-width:0.25;stroke-miterlimit:10;}
	.st3{fill:none;stroke:#121212;stroke-width:0.5;stroke-miterlimit:10;}
</style>
<g>
	<g id="Group_41" transform="translate(1476.217 2579.294)">
		<path id="Path_30" class="st0" d="M-1334.18-2398.97c0,0-30.33,1.25-40.88,0c0,0-26.37,7.51-29.01,6.26
			c-2.64-1.25-15.82,5.01-13.19-2.5c0,0-15.82-3.76-7.91-13.78c0,0-13.19-7.51-10.55-10.02c0,0-10.55-11.27,0-13.78
			c0,0-15.82-8.77-5.27-11.27c0,0-6.59-8.77,9.23-20.04c0,0-1.32-17.53,3.96-17.53c0,0,1.32-8.77,11.87-6.26
			c0,0-3.96-13.78,3.96-11.27c0,0-2.64-7.51,5.27-6.26c0,0,3.96-8.77,14.5-5.01c0,0,0-12.52,6.59-8.77c0,0-1.32-8.77,11.87-3.76
			c0,0,5.27-8.77,10.55-1.25c0,0,5.27-15.03,30.33,8.77c0,0,10.55-21.29,15.82-13.78c0,0,1.32-11.27,13.19-2.5
			c0,0,6.59-12.52,14.51-3.76c0,0,3.96-8.77,11.87,3.76c0,0,9.23-7.51,19.78,15.03c0,0,13.19-18.78,17.14-10.02
			c0,0,6.59-5.01,11.87,3.76c0,0,14.51,0,15.82,10.02c0,0,3.96-5.01,7.91,11.27c0,0,15.82,5.01,6.59,13.78
			c0,0,10.55,6.26-7.91,22.54c0,0,11.87-7.51,15.82,0c0,0,13.19-1.25,11.87,10.02c0,0,13.19,3.76,6.59,13.78c0,0,5.27,0-2.64,11.27
			c0,0,7.91,0,3.96,6.26c0,0,18.46-2.5,7.91,15.03c0,0,14.51-1.25,9.23,17.53c0,0,10.55,3.76-2.64,18.78c0,0,6.59,11.27,0,15.03
			c0,0,3.96,8.77-6.59,11.27c0,0,7.91,12.52-5.27,12.52c0,0,0,10.02-14.5,7.51c0,0,2.64,7.51-6.59,15.03c0,0,1.32,8.77-9.23,5.01
			c0,0,3.96,10.02-14.5,2.5c0,0-3.96,16.28-30.33,0c0,0-17.14,7.51-23.74-6.26c0,0-10.55,3.76-11.87-13.78
			c-2.59-6.12-4.97-13.24-6.59-21.29c-0.41-2.04-0.75-4.03-1.03-5.97c1.1-12.9-5.07-23.92-14.18-27.13c-5.68-2-11.1-0.48-13.8,0.53
			l-5.27-1.25C-1319.67-2378.93-1326.27-2393.96-1334.18-2398.97z"/>
		<path id="Path_31" class="st0" d="M-1324.29-2384.57c0,0,2.64,12.52-6.59,48.84c0,0-2.64,17.53-6.59,27.55
			c-2.56,11.52-3.88,23.28-3.96,35.06c0,0-3.96,27.55-2.64,42.58c0,0,1.32,31.31,2.64,51.34c0,0,2.64,33.81,1.32,61.36
			c0,0-1.32,27.55-2.64,43.83c0,0-2.64,40.07-6.59,58.86h3.96c0,0,7.91-47.59,9.23-66.37c0,0,3.96-26.3,2.64-42.58
			c0,0,1.32-18.78,0-43.83c0,0-2.64-32.56-2.64-45.08c0,0-1.32-37.57,1.32-45.08c0,0-1.32-3.76,2.64-43.83c0,0,5.27-28.8,7.91-41.32
			l5.27-21.29c0,0,1.99-11.9,4.62-13.15l-5.23-1.2l-3.39-6.57l-1.28-2.06L-1324.29-2384.57z"/>
		<path id="Path_32" class="st1" d="M-1427-2483.92c0,0,15.68,7.93,20.96,12.94c0,0,25.05,10.02,31.65,12.52l-6.59-2.5l15.82,6.26"
			/>
		<path id="Path_33" class="st1" d="M-1441.65-2448.44c0,0,21.1,3.76,26.37,6.26l13.19,3.76c11.87,1.25,48.79,21.29,48.79,21.29
			c6.59,1.25,18.46,13.78,18.46,13.78c6.59,1.25,13.78,21.54,13.78,21.54l-4.55-15.28c-3.96-16.28-11.87-30.06-11.87-30.06
			c-6.59-8.77-27.69-27.55-27.69-27.55c-1.32-3.76-11.87-16.28-11.87-16.28c-2.64-5.01-34-33.87-34-33.87"/>
		<path id="Path_34" class="st1" d="M-1424.51-2469.73c0,0,3.96,5.01,3.96,8.77c0,0,14.51,17.53,15.82,21.29l0.66,0.63"/>
		<path id="Path_35" class="st1" d="M-1429.12-2467.85c0,0,1.32,7.51,6.59,7.51h1.32l0.83-0.42"/>
		<path id="Path_36" class="st1" d="M-1193.09-2308.81c-2.64-2.5-18.46-16.28-18.46-16.28c-3.47-1.32-11.33-7.15-17.99-12.38
			c-5.99-4.7-11.02-8.91-11.02-8.91c-9.23-10.02-26.37-20.04-26.37-20.04c-9.23-6.26-25.05-11.27-25.05-11.27
			c-11.87-7.51-25.05-2.5-25.05-2.5l-2.55,1.28"/>
		<path id="Path_37" class="st1" d="M-1202.32-2340.11c0,0-13.19-1.25-18.46,0c-5.27,1.25-9.23,2.5-9.23,2.5l-4.72-3.99
			c0,0-0.55,6.49,4.72,19.01c0,0,3.96,16.28,7.91,22.54s1.37,3.19,1.37,3.19"/>
		<path id="Path_38" class="st2" d="M-1190.45-2321.33c0,0-9.61,0.97-13.38,2.99c0,0-3.76,2.02,1.51,14.54"/>
		<path id="Path_39" class="st1" d="M-1212.73-2325.62c0,0,6.45-4.47,11.73-4.47c0,0,2.64-2.5,9.23-2.5"/>
		<path id="Path_40" class="st1" d="M-1244.73-2350.46c0,0,8.13-0.93,14.72,0.33"/>
		<path id="Path_41" class="st1" d="M-1153.53-2397.72l-6.59,1.25c-3.96,0-10.22,1.25-15.49,2.5c-5.27,1.25-9.56,2.5-9.56,2.5
			c-6.59,1.25-26.37,3.76-26.37,3.76c-14.51,2.5-32.97,2.5-32.97,2.5c-10.55,0-29.01,2.5-29.01,2.5c-9.23-2.5-32.97,0-32.97,0
			s-2.28,0.75-2.8,0.95"/>
		<path id="Path_42" class="st1" d="M-1154.85-2385.2c0,0-13.19,0-14.51-2.5c0,0-3.96-2.5-5.27-5.01l-1.87-1.04l4.51-1.47l3.96-7.51
			l2.64-7.51"/>
		<path id="Path_43" class="st1" d="M-1223.05-2386.23c0,0,14.14-6.48,18.09-11.49c0,0,9.23-8.77,10.55-11.27
			c0,0,1.32-11.27,3.96-13.78"/>
		<path id="Path_44" class="st1" d="M-1165.39-2417.76c0,0-26.37,8.77-29.01,8.77"/>
		<path id="Path_45" class="st1" d="M-1208.91-2414c0,0-14.5,25.04-26.37,28.8"/>
		<path id="Path_46" class="st1" d="M-1284.73-2534.84c0,0-7.91,8.77-6.59,30.05c0,0-2.64,13.78-3.96,18.78
			c0,0-2.64,20.04-2.64,25.04c0,0-2.64,17.53-3.96,22.54c0,0-6.59,21.29-6.59,23.79c0,0-1.32,11.27-10.55,31.31
			c0,0,13.19-21.29,15.82-26.3c0,0,14.5-18.78,18.46-23.79c0,0,2.64-5.01,15.82-20.04c0,0,3.96-6.26,11.87-8.77
			c0,0,14.51-6.26,19.78-8.77c0,0,14.51-7.51,17.14-10.02c2.64-2.5,6.59-6.26,10.55-7.51c0,0,5.27-2.5,9.23-3.76"/>
		<path id="Path_47" class="st1" d="M-1234.62-2526.08c0,0-3.96,10.02-6.59,11.27c0,0-6.59,10.02-3.96,17.53
			c0,0-0.6,8.55-2.28,14.92"/>
		<path id="Path_48" class="st1" d="M-1421.87-2402.1c0,0,17.14-6.26,25.05-6.26c0,0,10.55-3.76,18.46-2.5c0,0,1.92,0.27,4.78,0.7
			c7.73,1.15,22.3,3.4,24.23,4.31c0,0,10.61,2.5,16.51,3.76"/>
		<path id="Path_49" class="st1" d="M-1392.86-2395.84c0,0,11.87-11.27,19.78-13.78"/>
		<path id="Path_50" class="st1" d="M-1399.45-2419.63c0,0,13,6.22,13.75,8.74"/>
		<path id="Path_51" class="st1" d="M-1411.32-2413.37c3.92,0.74,7.52,2.62,10.31,5.41c0,0-2.4,9.62-7.67,12.13"/>
		<path id="Path_52" class="st1" d="M-1385.7-2433c0,0-21.67,3.35-30.89,7.11c0,0-17.14,1.25-21.1,1.25"/>
		<path id="Path_53" class="st1" d="M-1433.74-2417.13c3.96,0,11.87-7.51,11.87-7.51l0.66-0.93"/>
		<path id="Path_54" class="st1" d="M-1412.64-2433.41c1.24,1.76,2.62,3.43,4.13,4.98"/>
		<path id="Path_55" class="st1" d="M-1367.81-2521.07c0,0,2.64,7.51,3.96,20.04l13.19,31.31c0,0,9.23,22.54,10.55,28.8l4.68,17.65
			c0,0,5.86-18.9,8.5-22.66"/>
		<path id="Path_56" class="st1" d="M-1354.62-2522.32c0,0,3.96,16.28,6.59,21.29c3.65-2.79,6.78-6.18,9.23-10.02"/>
		<path id="Path_57" class="st1" d="M-1350.66-2469.73c0,0,3.96-12.52,3.96-18.78c0,0-1.32-8.77-1.32-12.52"/>
		<path id="Path_58" class="st1" d="M-1380.99-2519.82c0,0,0,8.77,6.59,12.52c0,0,7.91,5.01,10.55,6.26"/>
		<path id="Path_59" class="st1" d="M-1312.42-2526.08c0,0,2.64,22.54,7.91,26.3c0,0,6.59,6.26,9.23,13.78"/>
		<path id="Path_60" class="st1" d="M-1276.82-2511.05c0,0-13.24,9.89-15.85,13.08"/>
		<path id="Path_61" class="st1" d="M-1315.06-2452.19c0,0,6,13.75,10.91,21.28"/>
		<path id="Path_62" class="st1" d="M-1319.02-2484.75c0,0,9.23,10.02,10.55,15.03c0,0,6.53,8.93,9.86,13.23
			c0,0,9.92-4.47,12.56-8.22c0,0,3.96-3.76,6.59-5.01"/>
		<path id="Path_63" class="st1" d="M-1345.12-2455.69c0,0,8.97-14.03,10.29-16.54c0,0,3.96-3.76,7.91-3.76"/>
		<path id="Path_64" class="st1" d="M-1239.9-2453.45c0,0-19.78,2.5-29.01,0l3.96-6.26c2.64-5.01,18.46-23.79,18.46-23.79
			c1.32-2.5,29.01-31.31,29.01-31.31"/>
		<path id="Path_65" class="st1" d="M-1239.9-2447.18c0,0-14.5,11.27-14.5,18.78c0,0-3.02,5.22-4.15,9.5"/>
		<path id="Path_66" class="st1" d="M-1188.47-2455.95c0,0-17.14,7.51-21.1,12.52c0,0-1.32,1.25-3.96,5.01"/>
		<path id="Path_67" class="st1" d="M-1214.84-2419.63c0,0-7.91,1.25-11.87,1.25c0,0-18.39-5.2-20.4-6.35"/>
		<path id="Path_68" class="st1" d="M-1163.42-2367.04c0,0-9.23,5.01-14.51,8.77c0,0,10.55,6.26,15.82,6.26"/>
		<path id="Path_69" class="st1" d="M-1271.89-2382.88c0,0,34.28,12.52,40.88,13.78c0,0,34.28,10.02,38.24,11.27h15.82"/>
		<path id="Path_70" class="st1" d="M-1164.74-2338.23c0,0-15.82-5.01-17.14-7.51c0,0-9.23-7.51-10.55-10.02l-2.61-2.9"/>
		<path id="Path_71" class="st1" d="M-1257.04-2305.68c0,0-1.32-11.27,1.32-13.78c0,0-6.59-13.78-6.59-17.53
			c0,0-7.91-16.28-10.55-18.78c0,0-13.19-17.53-19.78-20.04c0,0-16.66-9.46-23.5-4.78c-4.59,3.14,51.85-34.67,51.85-34.67
			c3.96-3.76,31.65-16.28,31.65-16.28c6.27-1.76,12.43-3.85,18.46-6.26c13.19,0,39.56-7.51,39.56-7.51"/>
		<path id="Path_72" class="st3" d="M-1245.17-2309.43c0,0,0-5.01-2.64-6.26c0,0-5.27-3.76-7.91-3.76"/>
		<path id="Path_73" class="st1" d="M-1276.82-2329.47l3.96-11.27c1.32-3.76,0.08-6.32,3.34-10.05"/>
	</g>
	<line class="st1" x1="157.2" y1="195.98" x2="156" y2="199.17"/>
</g>
</svg>
