<?xml version='1.0' encoding='utf-8'?>
<svg xmlns="http://www.w3.org/2000/svg" enable-background="new 0 0 500 500" version="1.1" viewBox="0 0 500 500">
<g fill="#231F20">
	<path d="m360.1 211.7c1 0.9 1.8 2.5 2.9 3.1s4.3 2.4 5.6 1.7c1.6-0.9 3.4-1.3 4.9-2.2 1.6-0.9 3-2.6 4.1-4.1 2.9-3.8 5.2-8.3 7.5-12.5 2.2-3.9 4.8-7.8 6.8-11.8 2-3.9 2.4-8.2 2.7-12.6 0.2-2.3 0.5-4.7 0.4-7-0.1-2.2-1.1-3.9-1.8-5.9-0.7-2.2-2-4.1-3.1-6.1-1.4-2.5-1.7-1.9-4.2-2.3-2.8-0.4-10.1-1.8-10.9-4.9 4 0.8 7.1 4.2 11.3 4.4 1.8 0.1 3.6-0.2 5.4-0.6 0.8-0.2 1.7 0.2 2.5 0.1 1.2-0.1 2.2-0.7 3.3-1.2 3.5-1.6 7-1.9 10.7-2.8s4.8-4 7.8-5.8c1.4-0.8 3-0.1 4.3-1.2 1.4-1.3 2.5-3.4 3.6-5 2.5-3.6 5.3-7 6.9-11.1 1.4-3.7 4-6.7 6-10.1 2.1-3.5 4.1-7.2 6.2-10.7 1.8-3.1 3.2-7.5 6.2-9.7 2.9-2 4.9-3.6 5-7.5 0.1-3.4-2.2-7.3-3.7-10.2-0.5-0.9-0.6-3.2-1.5-3.7-1.3-0.7-3.8-0.1-5.1 0.5-3.4 1.5-7.2 3.1-10 5.7-3 2.8-5.9 5.5-8.3 8.9-2.4 3.3-4.5 6.8-6.8 10.2-0.9 1.3-1.1 3.1-2.1 4.4-1.1 1.6-2 3.4-3.2 5-2.7 3.7-7 6.7-10.4 9.7-0.8 0.8-1.6 1.7-2.5 2.4-0.8 0.6-1.7 0.7-2.4 1.5-1.4 1.6-1.8 3.9-2.8 5.7-2.2 4-6.4 6.8-9.7 10-1.7 1.6-3.9 2.3-6.2 2.4-1 0-5.6 0.7-5.9-0.6-0.2-0.8 6.1-0.6 6.5-0.6 2.5 0 4.4-1.5 6.3-2.9 1.6-1.1-1.3-2.1 0.8-2.6 2.4-0.6 4.3-2.1 5.8-4.1 3.2-4.4 5.6-10.1 6.1-15.5 0.4-3.5-1.2-2.3-3.6-1.3-2.7 1.1-5.7 1.2-8.5 2.4-2.6 1.2-5 1.9-7.8 2.6-2.7 0.6-5.9 1-8.3 2.5-2.6 1.6-4.7 3.4-7.5 4.5-2.8 1.2-5.3 1.1-8.3 1.2-1.7 0-4.2 1.9-3.4 3.8 1 2.3 2.8 4 4.9 5.2 2.3 1.3 5 2.2 7.6 2.5 1.9 0.3 5.5-0.8 6.9 0.9-1.3 0.6-3.1 0.3-4.5 0.3-1 0-3.5-0.6-4.3 0.3-0.9 1.1-1.3 2.5-2.7 3.1-1.3 0.6-3-1.1-3.6-0.8-1.2 0.6-2.1-1-3-0.5s0.4 3.2 0.9 3.7c2.2 2.7 6.2 2.5 9.2 2.2-2.4 3.6-5.8 0.2-8.9 0.3 0.6 1.4 2.6 1.9 3.7 3-3.9 1.4-4.6-3.2-6.9-5.2-0.8 1.8 0 2 0.6 3.7 0.4 1 0 3.2-0.4 4.2-0.5 1.3-2.5 1.9-2.4 0.1 0-1.5 0.8-1.5 1.9-2.1 1-0.5-0.6-3.1-1-3.7-0.1-0.2-3.5 1.7-3.9 1.8-1.6 0.5-3.4 0.4-5 0.2-1.9-0.3-0.6 1-1.4 2-0.8 0.9-2.4-0.9-2.7 0.7-0.2 1.2 2.8 0.7 3.5 0.7 1.2 0 2.8 0.3 3.1-1.3 0.1-0.9 2.9-0.3 3.4 0 1.8 1-0.4 2.4 0.1 3.4 0.4 0.9 2.2 2.8-0.4 2.7-1.3 0-1.3-1.8-2.8-1.1-1.6 0.7-3.2 1-4.6-0.3 1.9-0.7 7.5-0.4 7.5-3.7-0.8 0.4-0.9 1.4-1.9 1.5s-2.1-0.3-3.1-0.3c-2.5 0.1-5.3-0.1-7.8 0.4 1.6 2.8 5.9 4.7 9 5 1.7 0.2 3.5 0.1 5.1-0.4 1.8-0.7 3.2-2.1 5-2.8-0.3 1.9-3 3.5-4.7 4.2-2.2 0.9-5 0.8-7.3 0.2-2.2-0.6-4.3-1.8-6-3.3s-4.2-4-4.8-6.2c1.2-0.1 2.1 0.9 3.1 1.5 1.4 1 1.4-0.9 1.8-1.9 0.5-1.1 1.6 0.3 2.1-0.4 0.9-1.4-1.2-1.4-2.1-1.6-1.2-0.2-2.3-1-3.3 0.1-1.5 1.5-1.2-2.6-1.2-3 0.2-1.3 0.9-2.6 2.3-1.2 0.9 0.9-0.4 2.6 0.9 2.8 3.5 0.6 7.2 0.6 10.8 0.9 1.8 0.1 7.3-3 7.4-4.9 0.1-2.6-4-3.3-5.8-4.5-1.7-1.2-5.7-4.3-5.8-6.6 1.9 0.6 3.6 3.4 5.2 4.7 1.3 1 4.1 3.4 5.9 3.1-0.2-1.2-2.3-2.2-3.2-3-1.3-1.1-2.7-2.1-4-3.2s-2.7-2.1-4-3.2c-1.2-0.9-2-0.1-3.2 0.1-1.5 0.3-1.8-1.8-0.7-2.5 1.3-0.8 0.2-1.7-0.4-2.6-0.8-1.2-1.5-2.6-2.3-3.8-0.7-0.9-1.7 1-2.9 0.4-1-0.6-0.8-1.9 0.2-2.2 1.4-0.4-0.1-1.8-0.5-2.4-0.5-0.9-0.8-2-2-2.1-1.6 0-1.4-2.3 0.2-2 1.9 0.4 2.5 3.8 3.8 5.3 1.8 2.1 4.6 4 5.7 6.5-0.5-0.1-1-0.2-1.6-0.4 1.6 2.8 4.9 5.5 7.4 7.5 2 1.7 5.3 5.1 7.9 5.6-0.6-1.5-2.2-3.1-2.1-4.8 1.4 0.9 2.2 2.7 3.3 4 1.3 1.4 3 3 4.7 3.7 1.6 0.6 3.1-0.3 3.6-1.9 0.2-0.7-4.2-2.3-4.9-2.7-1.6-1-7-5.4-5.3-7.4 1.3-1.4 1.6-3.1 1.1-4.9-0.5-1.7 0.9-3.5 2.7-3.2-0.3 0.8-1.2 1.1-1.7 1.8-0.5 0.8 0.9 1 0.6 1.6-0.7 1.8 0.3 1.1 1.4 1 1.7-0.1 5.7 0.2 7-1 0.5-0.5-0.4-1.1 0.4-1.6 0.7-0.4 1.2-0.5 1.9-1.1-0.9-0.7-1.3-1.1-1.9-2.1-0.5-0.9-3.2 0.1-4 0.3 2.1-3.2 4.4-1.9 6.5 0.5 0.9 1.1 0.3 2.7 2.1 1.5 1.5-1 2.9-2 4.5-2.9 1.7-1 1.1-6.4 0.3-8-0.3-0.6-2.3-1.5-1.3-2.6 1.3-1.6 0-3.2-0.1-4.9 1.1 1.1 1.5 3.4 2 4.8 0.2 0.5 0.1 1 0.6 1.3 0.3 0.2 0.9 0 0.9-0.5-0.5-3.9-3-7.3-4.2-11 3.2 3.6 7.7 11.4 5.2 16.3-0.5-0.6-0.3-1.9-0.9-2.3-1-0.7-0.6 2.2-0.6 2.4 0 0.7-0.2 2.8 0.4 3.3 0.7 0.7 2.1-0.3 2.4-0.9 1-1.9 0.4-6.2 0.1-8.3-0.2-1.5-0.8-3-1.3-4.4-0.4-1.1-1.4-2.2-1.6-3.4 2.8 1.9 3.9 6.4 4 9.5 0.1 2.4 0.1 1.3 1.7 2.3 1.6 1.1-0.3 2-1.4 1.2-1 2.8-1.5 3.4 1.7 3 2.9-0.4 4.3-0.8 6.4-2.9 1.8-1.8 4.1-3 6.3-4.4 2.6-1.7 5.1-3.5 7.5-5.4 1.7-1.4 2.7-3.6 4.3-5.2 2-2 3.8-4.1 5.6-6.3 1.6-1.9 4.6-3.3 6.7-4.8 2.4-1.6 4.7-3.2 6.9-5 8.6-7 11.4-19.4 8.9-29.9-1.3-5.4-4.5-10-7.6-14.4-1.3-1.9-2.7-2.8-5-3.3-2.2-0.4-4.9 0.3-6.7-1 2.5-1.7 7.2-0.7 9.8 0.6 2.1 1.1 2.3 1.5 4.6 0.7 2.1-0.8 4.4-1.3 6.6-0.9 3.4 0.5 6.6 2.8 8.6 5.5 1 1.3 1.7 2.9 2.5 4.4 0.4 0.7 0.9 4.1 1.8 3.5 3.3-2.3 6.6 1.8 8 4.4 0.8 1.5 1 3.2 1.6 4.8 0.7 1.8 2.2 2.8 2.7 4.6 0.8 3 4.2 4.6 5.7 7.3 2.1 3.7 3.5 8.2 2.6 12.4-0.9 3.9-1.8 8-3 11.8-1.2 3.7-4.2 5.2-6.2 8.3s-3.3 6.2-5.8 9c-1 1-2.4 2.8-3.9 3-2.1 0.3 1.1-2.7 1.4-3 2.7-2 4.5-4.9 6-7.9 0.8-1.6 1.6-3.1 3-4.4 0.5-0.4 1.4-0.9 1.5-1.6 0.1-0.9-0.3-1.7 0-2.8 0.7-3.8 2.1-7.3 2.9-11 0.9-4.1 0.2-8.6-0.2-12.7-0.3-3.3-3.4-3.7-4.5-6.5-0.4-1-0.3-2.3-1.2-3-1.1-0.8-2-1.3-2.5-2.6-1-2.6-1.3-5-3.2-7.2-2.4-2.8-3.8-2.3-6.3-0.1-1.4-2.3-1.7-5.2-3-7.7-1.1-2.1-2.6-3.9-4.6-5.2-2.1-1.4-4.5-2.2-7-2.2-1.2 0-6.6 0.4-5 2.5 3.1 4.2 6.3 9 7.8 14.1 1.5 5.2 1.1 11-0.1 16.2-1.2 5.3-3.6 10.5-7.8 14.2-4.5 3.9-10.3 6.3-14.6 10.4-2 1.9-3.7 4.1-5.6 6.1-1.8 1.9-3 4.4-5 6-4.6 3.8-9.8 6.4-14.5 9.9 2.1-0.6 4-1.5 5.9-2.5 1.8-1 3-2.5 5.2-2.1 1.3 0.2 4 1.2 3.8 2.9-0.4 2.5-1 5.1-1.1 7.7 2.2-1.1 3.9-3.2 5.7-4.9 2.3-2.1 4.5-4.1 6.6-6.4 1.6-1.9 4.5-4.3 4.9-6.9 0.5-3.1 2.4-5.3 4.1-7.7 3.4-4.9 5.8-9.5 10.7-13.1 2-1.5 3.2-3.5 5.5-4.7 2.4-1.3 5-2.3 7.4-3.5 1.5-0.8 4.8-1.1 5.8 0.6 0.5 0.8 0.4 1.8 0.9 2.7 0.7 1.3 1.6 2.4 2.1 3.8 0.4 1.1 0.6 2.2 1.1 3.3 0.7 1.3 1.7 2.4 2.3 3.8 1.3 3.2-0.4 6.2-1.9 9-2.9 5.4-5.2 11.2-8.1 16.6-3 5.7-7.3 10.4-10.4 16 4.2 0.2 8.2 1.1 12.1 2.6 3.7 1.5 6.7 4.2 10.1 6.3 3.3 2.1 3.5 7.5 2.4 10.8-0.9 2.7-2.8 7.6-6.4 6.6 0.7-1.3 2-1.9 3-3.1 0.9-1.1 1.6-2.5 1.9-3.9 0.7-3 0.8-7-1.8-9.1-5.9-4.9-14.1-9.4-22-8.6-1.4 0.2-2.3 2.7-3.1 3.7-1.1 1.4-2.3 2.6-3.5 3.9-2.2 2.3-5.8 6.6-9.4 5.5-1.6-0.5-1.3 1.2-2 2.1-0.9 1.1-2.4 1.6-3.7 2.2-4 1.9-8.2 2.1-12.3 3.4-1.9 0.6-3.7 1.4-5.6 2.1-0.9 0.3-1.8 0.6-2.7 0.3-0.7-0.2-1.2-0.7-1.9-0.2-0.5 0.4 4.1 8 4.5 9.1 2.4 7.1 1.6 17-1.6 23.7-0.9 1.9-0.3 2.6-0.2 4.6 0 0.9 0.3 1.5 0.6 2.3 0.7-0.3 1.2-0.6 1.9-0.9 1.2-0.6 1.7 0.2 1.9 1.4 0.5 2.7 0.9 1.3 2.8 2 1.2 0.5 1.3 2.2 1.8 3.2 0.6 1.3 1.7 2.3 2.9 3.1s2.6 1.3 4 1.8c1.5 0.6 3 1.9 4.7 1.8 2.6-0.2 2.7-0.1 4.6 1.8 1.7 1.7 4 2.2 6.3 1.6 0.9-0.3 1.7-0.7 2.6-0.6 1.3 0.1 1.3 1.4 2.2 2 1.6 1 6-2.2 7.4-3 9-5.2 22.8-0.3 28.8-10.7 0.9-1.7 1.3-3.8 2.7-5.2 0.7-0.7 1.6-0.8 2.3-1.3 0.9-0.6 0.8-2.4 1-3.3 0.6-3 1.7-5.2 3.2-7.8 1.4-2.4 1.5-5.2 1.2-7.9-0.5-5.6-3.1-9.8-5.3-14.8-0.9-1.9-2.1-3.6-4.1-4.5-2.1-1-4.8-0.7-6.4-2.6 2-1.4 7.3 0.8 9.1 2.4 2.6 2.3 3.6 6 5.2 9 0.8 1.5 1.8 3 2.2 4.7 0.4 2 0.4 4.1 0.6 6.1 0.2 1.9 0.6 4 0 5.9-0.6 1.7-1.9 3.2-2.6 4.8-0.6 1.4-1.1 2.8-1.5 4.2-0.3 1.2-0.1 3.7-1 4.6-0.8 0.9-2.2 0.6-3.1 1.6-1 1.1-1.1 2.8-1.9 4-1.7 2.7-4.2 5.2-7 6.6-3.2 1.7-6.8 1.4-10.3 2.3-3.4 0.9-6.1 3.1-9.7 3.7-1.9 0.3-3.9 0.2-5.8 1-1.4 0.6-2.9 1.4-4.5 1.5s-2-1.9-3.2-1.8c-1.7 0.2-3.4 1.1-5.2 1.1-3.1-0.1-4.5-3.8-7.6-3.9-1.5-0.1-2.6-0.4-3.8-1.5-1-0.9-3.2-1.3-4.5-2-1.4-0.8-3-1.6-4-2.8-0.8-1-0.9-3.3-2.1-3.8-0.8-0.3-2.2 0.2-2.8-0.7-0.3-0.5-0.4-2.7-1.3-2.4-1 0.2-2 1.4-3.1 0.7-1-0.6-0.9-2.8-1.1-3.8-2.7 4.2-5 8.5-7.5 12.8-2.1 3.7-4.1 8-7 11.1-1.2 1.3-2.7 2.4-4.4 3.1-1.8 0.7-4.2 2.3-6.1 1.9-3.9-0.3-7.6-2.3-7.2-6zm96-123.4c0-0.8-0.3-1.6-0.6-2.4-0.3 2.1-0.7 4.4-2 6.1-1.4 1.8-3.9 2-5.4 3.8-1.6 1.9-2 4.5-3.4 6.6-1.7 2.4-2.8 5-4.2 7.5-3.1 5.4-7.1 10.5-9.5 16.2-1.1 2.6-2.7 4.5-4.3 6.7-0.9 1.3-1.8 2.7-2.7 4.1-0.8 1.2-2 2.5-2.4 3.8 1.6-0.2 3.7-2.3 4.8-3.4 1.9-1.8 3.4-3.9 5.1-6 3.3-4.3 6.5-8.8 9.6-13.3s5.7-9.5 8.2-14.4c1.5-3 3.1-6 4.5-9.1 0.7-1.5 1.4-3.1 2-4.7 0.2-0.4 0.3-0.9 0.3-1.5zm9.6-12.5c-0.1-1.3-0.4-2.5-0.5-3.9-0.1-1-0.1-2.9-1-3.7-0.5 1.9 0.2 4.4 0.3 6.3 0.2 2.2 0.3 4.5-0.4 6.7-1 3-4.9 8.9-3 12 1.9-1.4 2.3-5.4 2.8-7.5 0.6-2.4 1.1-4.8 1.6-7.2 0.3-1 0.3-1.8 0.2-2.7z"/>
	<path d="m259.2 176.5c-2.9-1.2-4.2-5.1-4.9-8.1-0.4-1.8-0.3-3.6-0.6-5.4-0.4-2.3-1.3-4.1-2.4-6.1-0.7-1.5-1.3-3-2.2-4.5-0.8-1.4-2.1-2.6-2.7-4.2-1.1-3.4 0.5-8 2-11.1 0.8-1.6 1.7-3 2.6-4.5 0.8-1.4-0.6-1.6-1.4-2.4-1.4-1.2-2.3-3.2-3.3-4.7-1.3-2-2.6-4-2.8-6.5-0.3-3.8 0.8-7.7 0.8-11.5 0-3.6 0-6.7 1.9-9.9 1.6-2.7 4.3-4.1 6.2-6.6 1-1.3 0.7-2.9 0.8-4.4 0.2-2.3 0.6-4.6 1.4-6.8 2.6-7.7 8.4-12.9 16.8-13.4 8.9-0.5 17 2.5 25.3 5.1 3.7 1.2 7 4 10.2 6 3.4 2.2 6.2 4.8 9.4 7.2 2.2 1.7 4.2 3.6 6.4 5.3 2 1.6 3.5 3.6 5.5 5.2 2.2 1.8 4.4 3.4 6.4 5.4 2 1.9 4.8 4.6 5.8 7.2-2.9-0.8-5.6-5-7.6-7.1-2.7-2.8-5.8-5.1-8.6-7.9-2.4-2.5-5.2-4.4-7.9-6.5-2.8-2.3-5.5-5-8.6-6.8-3.2-2-6.4-4.4-9.8-6.1-3.5-1.7-7.3-2.6-10.9-3.7-3.5-1.1-7.7-1.9-11.4-2-3.6-0.2-7.6 0.1-10.9 1.7-6.3 3-9.3 10.6-9.6 17.2-0.1 1.6 0.2 3.2-0.6 4.7-0.7 1.3-2.1 2.1-3.2 3.1-2.6 2.2-4.5 5-5.1 8.4-0.7 3.8 0 7.8-0.5 11.6-0.2 1.9-0.7 3.6-0.2 5.5 0.5 2 1.8 4 3 5.7 2 2.8 4.6 4.3 6.8 6.7 2.6 2.8 5.6 5.8 9.1 7.4 2.1 1 4.3 1.4 6.4 2.1 1 0.3 1.9 0.9 2.7 1.7 1.3 0.3 2.5 0.6 3.8 1 2.5 0.6 5.1 1.1 7.7 1.2 1.5 0 5.5 0.7 6.3-0.9 1-2 0-4.3 1.4-6.3 1.2-1.7 2.5-3.4 4.1-4.8 4-3.3 8.4-3.5 13-1.1 2.7 1.4 3.1 3 3.7 5.8 0.5 2.5 1.1 4.7 2.4 7 0.9 1.5 2 1.5 3.7 1.3 0.8-0.1 3.6-1.5 4-1.1 1.5 1.7-2.7 2.5-3.8 2.5-2.7 0-1.3 1.8-0.7 3.9 0.2 0.8 0.4 2.7 1.3 3.2 0.7 0.3 1.9-1 2.4-1.4 0.9-0.6 1.9-1.1 3.1-1.2 0.1 0 0-2.3 0-2.3 1.2 0.9 1.8 2.2 3.3 2.9 1.6 0.8 3.9 1.2 4.9 2.7-1.9 0.9-3.6-0.8-5.3-1.5-2.2-1-4.5 0.2-6.3 1.6-4.5 3.6-5.1-5.6-6.8-8.1-1.4-2-2.5-4.3-3-6.8-0.3-1.5 0.1-4.6-1-5.7-0.5-0.5-1.5-0.4-2.2-1-0.8-0.7-1.7-1.2-2.7-1.6-1.9-0.7-4-0.6-5.9 0-8.9 3-11.4 14.7-4.5 20.8 1.8 1.6 3.2 2.6 5.6 2.8 2.3 0.2 3.9 1.9 6.1 2.4 1 0.3 2.1 0.2 3.2 0 1.3-0.2 2.3 0.3 3.5 0.6 2.3 0.6 3.2-0.8 4.9-1.9 1.2 2.1-2 3.4-3.8 3.3-1.1-0.1-2-0.8-3.1-0.9-1.4-0.1-2.7 0.7-4.2 0.5-2.6-0.3-4.4-2.4-7.1-2.6-2.8-0.2-4.9-1.7-6.8-3.7-0.8-0.8-1.5-1.6-2.1-2.5-0.7-1.1-0.9-2.5-1.8-3.4-1.6-1.7-6-0.7-8.2-0.9-6-0.6-11.9-2.8-17.4-5-2.5-1-4.8-2.5-6.8-4.4-0.6-0.6-5.3-5.3-5.8-4.8-3 2.8-6.6 11.5-4.5 15.5 0.5 0.9 1.5 1.4 2 2.4 0.6 1.3 1.3 2.6 2 3.9 1.3 2.6 2.7 5.2 3.2 8.1 0.5 2.7 0.5 5 1.5 7.6 0.5 1.1 3.1 4.8 2.4 5.9z"/>
	<path d="m259.2 176.5c0.7-0.6 3.1-2.1 2.9-3.5-0.1-1.5-3.5-2.7-2.2-4.5 1.1-1.4 3.3-2.2 4.6-3.5 1.9-2 3.1-2.8 5.9-3 5.1-0.5 10.1-0.9 15.2-1.5 2.4-0.2 4.9-0.5 7.3-0.8 1.4-0.2 2.8-0.2 4.1-0.5 1.2-0.3 2.3-0.8 3.6-0.7-1.1 2.8-7.5 2.6-10 2.9-4.5 0.6-9.1 1.1-13.6 1.5-2.9 0.3-8.2-0.4-10.5 1.7-1.2 1.1-2 2.4-3.5 3.3-1.8 1.1-2.9 1-0.9 2.7 3.7 3.1-0.7 5.8-2.7 8.2-2.6 3.1-3.4 7.4-4.7 11.2-0.9 2.5-3.1 6.9 0.3 8.5 1.7 0.8 3.8 1 5.6 1.5 2.2 0.6 4.3 1.6 6.4 2.5 1.1 0.5 1.2-0.1 1.4-1.1 0.4-1.9 1.2-3.7 2.1-5.3 0.6-1.1 1.3-3.3 2.8-3.5 2-0.4 4.4 0.7 6.4 0.9 3.7 0.5 8.2 1.2 11.9 0.8 3.2-0.3-0.4-5.6 0-7.6 0.8-3.9 6-3.8 9-3.9 4.4-0.1 8.9 0.3 13.3-0.4 1.9-0.3 3.7-1.2 5.6-1.3 1.7-0.1 3.5-0.1 5.2-0.5 4.2-1 8.4-2.2 12.4-3.8 1.3-0.5 2.7-1 3.8-1.9 1-0.9 1.2-2.1 1.9-3.1 1.5-2.2 3.8-2 6.1-2.4s4.2-1.9 5.5-3.8c1.6-2.4 1.5-5.4 3-7.7 0.9 1.9-0.3 5.2-1.1 7.1-1.1 2.6-3.7 4.2-5.5 6.4-4.3 5.1-9 9.5-14.8 13-2.6 1.6-5.9 2.9-8.1 5-2.3 2.2-4.2 4.6-6.8 6.4-2.6 1.9-5.1 3.9-7.6 5.8-2.8 2-6.1 2.9-9.4 3.7-6.7 1.8-13.9 1.7-20.8 1.3-3.6-0.2-7.1-0.6-10.6-1-1.5-0.2-2.8-0.6-4.1-1.3-0.5-0.3-1.2 0-1.8-0.2-0.7-0.2-1.3-0.6-1.9-0.9-4.2-2.1-13.3-1.7-13-8.2 0.1-3.1 1.7-6.4 2.6-9.3 1-3.6 2.7-6.2 4.7-9.2zm46.2 7.6c0-0.2-4.4-0.1-4.9-0.1-1.9 0-3.6-0.2-5.3 0.9-1.4 0.9-3 2.2-1.4 3.8 1.7 1.7 2.5 2.5 1.2 4.8-1.8 3.4-5.9 2.2-9 2-2.1-0.1-4.2-0.3-6.2-0.7-1.7-0.3-4.4-1.9-6.1-1.2-1.2 0.5-2 2.9-2.6 4-0.9 1.6-1.6 3.3-1.8 5.2-0.3 2.4 8.8 2.2 10.7 2.4 4.2 0.4 8.5 0.2 12.7 0 2-0.1 4 0 6-0.2 2.1-0.2 4-0.9 6.1-1.4 3.5-0.9 6.7-1.9 9.6-4.2 3.1-2.5 6.6-4.6 9.5-7.4 2.8-2.7 5.2-4.9 8.5-6.9 3.6-2.2 7.2-4 10.4-6.7 0.8-0.7 7.3-6.1 6.2-7.2-0.8-0.9-3.5-0.1-4.4 0.3-1.7 0.8-1.2 2.7-2.1 4.1-1.8 2.8-7.1 3.3-10 4.2-4.3 1.3-8.3 2.5-12.7 2.8-2.2 0.2-4.3 1.2-6.5 1.5-2.7 0.2-5.4 0-7.9 0z"/>
	<path d="m360.2 211.7c-3.2 2.2-6.2 5.3-8.9 8.1-1.1 1.1-1.3 2.3-2.9 2.7-1.7 0.4-3.7-0.1-5.4-0.2-9.1-1-18.2-1.5-27.4-1.5-4.3 0-8.5-1-12.8-1.3-3.1-0.2-5.2-4.2-2.1-6.2 1.3-0.8 3-0.9 4.3-1.7 1.7-1 3.3-2.3 4.9-3.6 1.9-1.5 3.6-3.3 5.3-5 1.4-1.4 2.4-3.3 3.8-4.6 1.6 2.5-6.2 8.8-7.9 10.3s-3.5 2.7-5.4 4c-0.9 0.6-1.6 1.2-2.7 1.3-0.8 0.1-1.7 0.2-2.1 0.9-2.4 4.2 6.7 3.2 8.7 3.8 2.1 0.6 4.3 0.7 6.4 0.6 2.3-0.1 5.4 0.5 7.6-0.3-3.1-1.8-8.3-1.3-11.9-1.6-1.8-0.1-7.9 0.2-8.2-2.5 1.3 0 2.4 0.9 3.9 0.9 2.1 0 4.2 0.1 6.2 0.2 3.9 0.2 7.6 1.2 11.4 1.5 1.4 0.1 2.7 0 4.1 0.3 1.6 0.4 2.6 1.5 4.1 2.2 2.8 1.2 7 0.6 10 0.7 2.5 0.1 4.5 1.2 4.2-2-0.3-3.7-1-7.3-1.2-11-0.1-1.3-0.4-2.9 0.2-4.1 0.7-1.6 2.7-2.3 4.1-3.1 3.3-2 6.5-4 9.6-6.2s6.2-4.5 9.3-6.8c2.8-2 5.8-2.8 8.9-4.2 3-1.3 6-3.1 7.8-5.9 0.7-1.1 1.2-2.3 1.3-3.7 0.2-1.9-0.6-2.8-0.8-4.6-0.2-1.5 0.1-2.6-0.4-4.1-0.5-1.6-0.3-3-1.6-4.3-2.2-2.2-3.7-4.9-6.4-6.6-1.4-0.9-2.8-1.7-4.1-2.7-1.6-1.1-1.7-1-2.2 0.7-0.6 2-2.3 4.8-4.7 4.7 0.3-1.7 1.9-2.2 2.8-3.7s1.1-3.2 1.6-4.9c0.5-2 0.9-2.2-0.8-3-1.1-0.5-2.5-1.2-3.5-1.5-0.1-0.7 0.3-1.2 0.6-1.9 0.4 0.8 1.7-0.2 1.8 1.2 0 1.6 2.7 1.9 3.8 2.1 2.1 0.5 0.1 2.4-0.5 3.2-0.4 0.6 3.3 2.1 3.9 2.6 1.3 1 2.6 1.8 3.9 2.8 1.6 1.2 2.1 3 3.4 4.4 1.3 1.5 3 2.3 3 4.6 0 1.6 0.5 3.6 0.7 5.1 0.5 3.9 1.9 8 0.2 11.8-1.8 4-5.7 7.4-8.5 10.7-3.3 3.8-6.6 7.6-10 11.2-3.1 3.4-7 6.8-9.4 10.2zm-11.7 6.9c-0.2 0 0 2.2 0.1 2.5 1.4-1 2.5-2.9 3.8-4.2 1.8-1.7 3.6-3.5 5.3-5.2 3.3-3.3 6.4-6.7 9.6-10.1s6.4-6.7 9.4-10.2l4.8-5.7c1-1.2 3.3-3 3.5-4.6-1.5 0.6-2.7 2.1-4.3 2.8-2.3 1-4.7 1.8-7 2.8-4.8 2.2-8.7 6.1-13 9-1.9 1.3-3.9 2.4-5.8 3.5-2 1.2-5 2.4-6.5 4.2-1.4 1.7-0.6 4.4-0.5 6.4 0.2 3 0.4 5.9 0.6 8.8z"/>
	<path d="m353.2 86.3c0 1.6 0.3 3.2-0.6 4.5-1.3-2.1-0.7-5.8-0.5-8.2 0.3-3.5 0.7-7 1.3-10.5 1.1-6.7 2.8-13.4 4.1-20 0.3-1.4 0.5-2.8 0.8-4.3 0.2-1.2 1.4-3 1.1-4.2-0.3-1.1-1.5-1.8-2.2-2.5l-3.4-3.4c-4.6-4.5-10.2-6.9-16.5-8.3-3.1-0.7-6.2-1.1-9.4-1.2-3.1-0.1-5 1.6-7.2 3.5-2 1.7-3.4 3.5-4.6 5.9-1.5 2.8-3.8 5.2-6 7.5-1 1-1.7 1.3-3 1.9s-1.8 2-3 2.8c-1.2 0.7-2.6 0.5-3.8 1.3-1.1 0.8-2.1 1.8-2.9 2.9-2 2.3-3.6 5-4.7 7.8-0.9 2.1-1 5.3-2.7 6.8-1.2-2.3 0.7-5.6 1.7-7.9 1.3-3 3.1-5.9 5.4-8.3 0.9-1 2-1.9 3.1-2.7 1.2-0.9 2.8-1 4.1-1.9 2.8-2.2 5.3-4.1 7.6-6.8 0.8-1 2.1-2 2.7-3.1 0.7-1.5 1.4-3 2.5-4.3 2-2.4 5.1-5.7 8.2-6.4 3.4-0.7 7.7-0.1 11 0.6 3.4 0.8 7.2 1.8 10.4 3.2 3 1.3 5 3.4 7.5 5.4 0.8 0.6 3.2-0.4 4.2-0.4 1.7-0.1 3.9 0 5.4-0.6 2.7-1 4.4-5.1 6.1-7.1 2.3-2.7 5.5-4.2 8.7-5.6 6.2-2.7 13-4.8 19.7-2.9 2.6 0.7 5.3 1.8 7.3 3.7 1.3 1.2 2.3 2.6 3.2 4.1 0.7 1 2.4 2.9 2.4 4.1-1.3-0.1-2.4-2.6-3.1-3.7-1-1.5-2.3-2.9-3.7-4.1-3.5-2.7-8.4-3.6-12.7-3.5-4.8 0.2-9.5 2.1-13.8 4-2 0.9-4.1 1.8-5.7 3.3-1.7 1.5-2.9 3.6-4.5 5.2-6.2 6.3-8.4 15-10.1 23.4-2 9.9-4.1 19.8-4.4 30zm4.8-49.4c-0.8 0-1.6 0.2-2.4 0.4 1 1.7 2.6 2.9 3.9 4.3 1.2 1.3 2.6-3.9 2.9-4.8 0 0-3.3 0.1-3.6 0.1h-0.8z"/>
	<path d="m319.8 128.2c0.1-2.3-0.5-1.2-2.1-1.4-1.7-0.1-1.2-3.7 0.5-3 0.9 0.3 1.6 1.8 2.2 2.5 0.8 0.9 1.8 1.7 2.7 2.5 2.1 1.8 4.1 3.4 6.7 4.5 0.3-1.2-2.2-2.8-2.9-3.6-1.4-1.5-3.1-4.1-5-4.8-1.3-0.5-1.5-2.3-0.9-3.4 0.4-0.8 3.5-1.9 4.2-1.6 1.3 0.6 2.2 3.5-0.1 2.9-1.5-0.4-2.5 1.8-1.4 2.8 1.6 1.5 3.2 3.1 4.9 4.6 1.6 1.4 4.3 2.6 5.5 4.2-0.8 0.2-1.4-0.1-2.2-0.2 2.8 2.7 7.7 5.5 11.8 4.9-1.1-1.1-2.9-1.6-4.2-2.5-1.4-1-2.7-2.1-4.1-3.3-2.8-2.4-7.2-3.9-9-7.3 0.8 0.4 3 2.8 3.7 2.6 0.1-0.3 0-0.6-0.3-0.8 1.6-0.1 4.6 3 5.7 4.2 1.9 1.9 4.1 3.4 6.4 4.6 2.2 1.1 4.4 1.9 6.7 2.7 0.8 0.3 1.2 1.6 0.1 1.7s-2.5-0.4-3.6-0.5c-2.8-0.4-5.7-0.7-8.3-1.8s-4.6-3.5-7.2-4.4c-2.5-0.8-4.3-2.8-6.2-4.5-1.1-1-1.1 0.3-2.1 0.6-1.3 0.6-1.4-1.5-1.5-2.2z"/>
	<path d="m336.7 118.5c0.3-1.1 1.2-2.3 0.5-3.1-1.3-1.5-3.2-3.2-4-5.1 0.6 0.2 0.8 0.4 1.3 0.6 0.4 0.1-0.1-0.9 0.6-0.7 0.9 0.3 1.9 0.6 2.7 1.1 0.9 0.6 0.5 1.6 0.8 2.5s2.3 4.1 3.4 4c2.5-0.2 4.1-1.9 6.2-3 0.7-0.4 1.4-0.6 2.2-0.4 1.4 0.4 1.6 0.6 3.1 0.3 1.6-0.3 4.6 0.4 3.1 2.8-0.2 0.4-1.1 0.9-1.5 0.5s0.6-1.2 0.6-1.7c0-2.3-3.6 0.2-4.2 0.2-0.7 0.1-1.2-0.6-1.4-1.1-0.3-0.6-1.9 0.3-2.2 0.5-0.8 0.4-1.5 0.9-1.8 1.7-0.6 1.6-0.4 1.1-1.8 0.7-2.7-0.6-1.4 3.7-0.8 4.7 1.4 2.1 2.9-0.6 4.5-0.9 1-0.2 4.5 1.4 2.7 2.6-0.5 0.3-0.8-1.1-1-1.2-0.5-0.7-1.4-0.6-2.1-0.4-0.8 0.3-1.4 1-1.8 1.7-0.5 1.1 0.4 1 1.1 1.3s-0.5 1.3-0.6 1.6c-0.4 1 0.8 1.6 1.4 2.2-0.7 0.3-1.4 0.2-1.9-0.1-0.3-1.4-0.3-3.2-0.9-4.5-0.8-1.5-2.4-2-3-3.9 0-0.1-1.1-3.4-1.7-2.7-1.3 1.1-2.5 0-3.5-0.2z"/>
	<path d="m343 142.7c-3.1 0.3-6.2-0.4-9.1-1.5-2.7-1-7.1-2.6-8.9-4.9 1.7-0.1 4.1 1.6 5.7 2.3 2.1 1 4.2 1.8 6.4 2.3 3.7 0.7 8.1-0.4 11.6 1.1-1.7 0.8-3.8 0.6-5.7 0.7z"/>
	<path d="m367.3 143.7c0.8 2.3 1.4 13.3-2.9 12.4 0.7-1.3-1.5-1.2-1.1-2.9 0.2-0.7 0.5-1.6 1.3-1.6 0.5 0 1.3 1.3 1.6 1.1 0.9-0.7 0.5-5.8-0.3-6.2-0.3-1.6-0.7-3.5 1.4-2.8z"/>
	<path d="m360 152.5c0.1 3-2.6 4.9-5.2 3.3 2.3-0.9 4.9-1 4.2-4.2-0.4 0.8-1.4 2.7-2.5 1.5-1.4-1.5 0.6-1.8 1.4-2.3 1-0.6 0.2-3.1 2-2 1.5 0.9 2.8 1.2 3.3 3-1.5-0.7-3.5-2.4-3.2 0.7z"/>
	<path d="m345.7 129.6c0.7 0.9 1.7 1.9 2.2 3-2.6-0.1-5.8-4.8-7.3-6.7-2.4-2.9-4.8-6-5.9-9.7 0.7 0.7 1.3 1.5 2 2.2 0.5 1.8 3.1 4.3 4.4 6 1.2 1.7 2.8 4.5 4.6 5.2z"/>
	<path d="m367.8 112.7c-0.1-1.7 0-3.5-0.6-5.1-0.3-0.8-0.6-1-0.2-1.7s1.3-0.9 1.7-0.1 0 0.9-0.1 1.7c-0.1 0.9 0.3 1.7 0.3 2.6 0.1 2.1 0.7 4.8-0.5 6.5-0.8-1.3-0.6-2.5-0.6-3.9z"/>
	<path d="m341.1 97.7c0.6 0.7 2.6 2.2 0.7 2.8-0.5 0.2-1.1 0-1.5 0.5s-0.5 1.2-1.2 1.3c-1.2 0.2-2.3-2.4-1.1-3 0.6-0.3 1.2 0.1 1.7-0.4 0.6-0.5 0.8-0.8 1.4-1.2z"/>
	<path d="m326.6 143.5c0.8 1.4 2.5 6.3-1.1 5.3-0.8-0.2-0.6-2.6-0.9-3.4-0.5-1.4 0.8-1.9 2-1.9z"/>
	<path d="m367.3 96.7c2-0.1 1.7 1.3 1.1 2.5-0.7 1.3 0.1 2.5-1.2 3.6-1 0.8-2-1.4-1.5-2.1 0.7-1.4 0.7-2.7 1.6-4z"/>
	<path d="m351.4 92.1c1.2 0.1 4.6 2.6 2.1 3.3-1.9 0.6-4.2-1.9-2.1-3.3z"/>
	<path d="m343.9 110.3c-1.5-1.4-3.3-5.7-2.8-7.8 1.2 1.1 1.1 3 2.2 4.2 0.6 0.7 1.4 0.5 1.6 1.5s-0.5 1.4-1 2.1z"/>
	<path d="m323.2 134.2c0 1.7-2.7 2.6-3.4 0.9-0.8-2 3.4-3.7 3.4-0.9z"/>
	<path d="m348.4 111.9c-0.1 2.2-3 1.6-3-0.4 0-2.4 3-1.8 3 0.4z"/>
	<path d="m331 108.3c-1.9-0.1-2-3.2 0-3.1 2.3 0.2 2.5 3.2 0 3.1z"/>
	<path d="m334.1 124.8c-0.1 2-3 1.2-3-0.5 0-2.8 3-2 3 0.5z"/>
	<path d="m366.5 110.2c0 0.6-0.3 1.2-0.5 1.8-1-2.8-1.6-7.1-1.3-10.1 0.5 0.8 2.3 8.2 1.8 8.3z"/>
	<path d="m363 97.9c0 1.4-2.4 2.4-3.1 1-1-2.1 3.1-3.7 3.1-1z"/>
	<path d="m367.1 91.4c2.1-0.1 1.9 2.8-0.1 2.8-2.2-0.1-2.1-2.8 0.1-2.8z"/>
	<path d="m339.7 111c0.2-0.7 0.3-1.6 1.3-1.6 0.9 0 1.6 1.4 1.5 2.2-0.3 1.5-3.2 1.1-2.8-0.6z"/>
	<path d="m379.7 112.2c0.2-1.8 0.4-3.4 0.1-5.2-0.1-0.5 0.3-3.6 1.1-2.1 0.6 1.1-0.2 2.4-0.2 3.6 0 1.4 0 2.9-0.8 4.1-0.1-0.2-0.1-0.3-0.2-0.4z"/>
	<path d="m324.4 150.4c-0.7 0.7-1.1 1.2-2.1 0.6-0.7-0.4-1.3-1-1-1.8 0.8-2 3-0.3 3.1 1.2z"/>
	<path d="m382.3 110.4c0.3-0.6 0.4-1.1 1.1-1.4 1.4-0.6 1.2 1.2 0.8 2-2.3 4.4-0.6-0.4-1.9-0.6z"/>
	<path d="m352.3 152.8c-1.1-1.3-0.2-1.7 0.8-2.9 1.1 1 1.2 2.7-0.8 2.9z"/>
	<path d="m328.8 125.4c-1.1-0.2-1.6-1.9-0.5-2.5 1.8-1.1 2.6 2.2 0.5 2.5z"/>
	<path d="m375.7 143.6c-0.3-0.1-0.5-0.3-0.8-0.4 1.1-1.2 3.9-1.8 5.4-2.5-0.9 1.7-2.8 2.1-4.6 2.9z"/>
	<path d="m381 102.1c-0.6 0.3-1.2 0.9-2 0.5-0.5-0.3-0.7-1.1-0.2-1.5 1-0.9 2.2-0.3 2.2 1z"/>
	<path d="m361.5 101.5c-0.8 0.6-2.9 2.1-2.8-0.2 0.1-2.2 2.1-0.4 2.8 0.2z"/>
	<path d="m365.9 146.6c0.7 1.6-2 1.9-2.9 2.2-0.5 0.1-0.2-0.7 0-0.8 0.9-0.5 2.1-1 2.9-1.4z"/>
	<path d="m354.6 100.8c-0.1 0.3-0.2 0.6-0.2 1-0.7-1.2-1.3-3.2-1.1-4.6 0.8 0.7 1 2.5 1.3 3.6z"/>
</g>
<g fill="#231F20">
	<path d="m57.4 302.8c0 3.9-0.7 8.5 0.2 12.3 0.4 1.9 1 3.3 1.1 5.3 0.2 2.1 0.8 4.2 1.6 6.1 3.1 7.1 8.5 12.5 14 17.7 5.6 5.3 12.3 10.4 19.5 13.3 1.8 0.7 3.5 1.2 5.2 2.3 1.3 0.8 2.9 0.9 4.1 1.9 1.6 1.4 1.7 7.8-1.4 7.1-1.2-0.3-2.4-1.2-2.7-2.5s0.6-2.7 0.1-3.9c-0.5-1.3-3.2-1.6-4.3-2.1-2.1-0.8-4.1-1.8-6.2-2.8-3.7-1.8-7.6-3.1-11.4-4.5-4.2-1.5-8.2-3.1-12.6-3.6-3.5-0.4-7.8-0.8-11.3-0.1-2.8 0.5-6.9 3.1-8 5.9-1.3 3.5 0.2 8.2 0.5 11.7 0.1 1.6 0 3.3 0.6 4.9 0.8 1.8 2.5 2.7 3.9 4 2.9 2.7 5.5 6.1 7.5 9.5 2.2 3.6 2.1 7.9 4.8 11.2 2.5 2.9 5.9 4.8 9.3 6.4 2.5 1.2 2.2-0.1 2.4-2.5 0.2-2.3 0.3-5.1 1.4-7.2 3.6-6.9 12.6-9.9 19.8-10.9 5-0.7 10.1-0.4 15.1 0.3 2.3 0.3 4.5 0.4 6.9 0.1 0.7-0.1 1.5-0.3 2.2-0.2s1.3 0.8 2 1c0.2-2.9-1.7-2.2-3.8-3.4-0.9-0.5-1.7-0.8-1.9-1.8-0.1-0.6 0.3-1.9 0.8-0.8 1.2 2.4 4.1-2.2 5.2-0.5 1.2 1.9 4.5 1 6.3 1.9-1.7 1.2-2.1 1.4-2 3.5 1.1-0.1 1.9-1.4 2.9-2 0.6 2.4-2.3 4.4-3.9 6.1-1.8 1.9-4.1 3.4-6.6 4.2s-5.2 1.1-7.8 0.7c-1.3-0.2-2.6-0.6-3.9-1.1-1-0.5-2.8-0.2-3.5-1.3-1.3-2.2 2.3-4.6 4.1-4.8 3.8-0.4 0.8 3.1 0.5 4.6s6.1 1.2 7 1.1c3.7-0.4 6.2-1.8 8.6-4.5-1.7 0-3 0-4.7 0.4-1.5 0.3-2.8-0.1-3.8-1.3-0.6-0.7-4.2-0.4-5.2-0.5-2.5-0.2-5.1-0.4-7.7-0.5-7.7-0.2-16.7 1.2-22.4 6.9-1.1 1.1-2.7 2.3-3.2 3.8-0.6 1.8-0.7 4-0.8 5.9-0.3 4.6 0.3 9 1.5 13.5 1 3.9 2.1 8 3.9 11.6 1.3 2.6 3.7 7.9 6.9 8.4 1.9 0.3 2.4 0.4 3.2 2.3 0.6 1.5 1.7 2.8 2.8 3.9 2.8 2.6 6.2 4.9 9.2 7.2 3.2 2.4 6.5 4.4 9.8 6.6 3.2 2.1 5.7 5.2 9 7 3.5 2 3.9-2 4.2-4.6 0.5-4.1 0.9-8.1 1.4-12.2 0.4-3.9 1.9-7.6 2.2-11.5 0.3-4.4 2-8.4 3.1-12.7 0.3-1.4 1.6-3.5 1.2-4.9-0.4-1.5-2.2-2.5-3.1-3.7-2.3-3.4-2.5-7.8-3.1-11.7-0.1-0.7 0.8-2.7 1.2-1.2 0.5 2 0.8 4 1.3 6 1 4.3 3.2 6.7 6.4 9.6 2.6 2.4 4.4 5.3 7.2 7.6 3.3 2.6 6.4 5.4 9.6 8.1 3 2.5 6 5.1 9.3 7.1 3.8 2.2 7.6 2.2 11.8 2.4 4.1 0.2 7.2-0.7 11-2.2 4.1-1.7 7-0.1 10.3 2.3 3 2.2 6.4 3 9.6 0.9 3.8-2.6 7.7-5.1 11.6-7.6 3-2 7.3-3.5 7.8-7.4 0.2-1.8 0.7-3.5 1.6-5.1 0.8-1.4 1.9-3 1.1-4.7-1.5-3.1-6.6-4-9.6-4.1-4.5-0.3-8.9 0-13.3 0.8-8.4 1.4-16.5 2.7-25.1 3-1.4 0-1.8-1.2-3-1.3s-2.2 1.5-3.3 0.9-1.2-2.1-0.9-3.2c0.4-1.7 2.5-2.1 4-2.4 1.4-0.2 2.5 0.2 2.7 1.8 0.2 1.9 0 1.9 2.2 1.8 4.7-0.3 9.3-0.4 14-1.1 4.1-0.7 8-2 12.1-2.4 4.5-0.5 9-0.2 13.5 0 2.7 0.2 7.3 2.3 8.9 4.6 2 2.9-1.3 7-2 9.8-0.4 1.6-0.2 3.4-0.8 4.9s-2.3 2.2-3.6 3c-3.6 2.3-7 5-10.7 7.3-6.8 4.1-13.1 8.7-21.3 8.6-3.9-0.1-7.9-0.9-11.6-2.3-1.6-0.6-2.2-1.5-3.4-2.7-1.2-1.3-3.6-1-5.2-1.1-1.2-0.1-3.6 0.2-4.6-0.4-1.5-0.9-3.1-1.4-4.8-1.9s-3.3-0.9-4.9-1.5c-1.3-0.5-2.4-1.5-3.8-1.8 0.3 2.6 3.1 6 4.9 7.8 2.7 2.8 7.2 5.4 10.8 6.9 1.5 0.6 3.2 0.4 4.7 1 1.5 0.7 2.8 1.9 4.3 2.7 3.8 2.2 7.4 2.3 11.7 2.1 4-0.2 8.4 0 12.3-0.9 4.5-0.9 8.3-2.4 13-1.6 4 0.6 7.5 0 11.2-1.2 1.9-0.6 4-1 6-1 1 0 2.1 0.1 3.1 0.3 0.9 0.2 2.2 0.9 3.1 0.7 1.1-0.3 1.2-3.3 1.4-4.1 0.5-2 1-3.9 1.6-5.9 1.1-3.8 4-7.4 6.4-10.5 2.4-3 5-5.9 7.2-9.1 1-1.5 2.2-3.2 2.9-4.9 0.5-1.4-2.5-1.4-3.3-1.5-1.6-0.4-3.7-0.6-5.2-1.5-1.4-0.8-2.4-2.5-3.3-3.8-2.2-3.1-3.9-7.2-2.3-11 1.4-3.5 2.3-5.1-1.2-7.6-3.7-2.6-7.2-3.6-11.7-4.3-8.9-1.4-17.9-1.7-26.9-2.4-3.7-0.3-7.9-0.4-11.5-1.5-1.4-0.4 1.5-1 1.8-1l7.2 0.6c8.5 0.7 17.3 0.5 25.7 1.9 7.3 1.2 17.4 1.6 20.4 9.8 0.6 1.6 1.8 2.8 2.5 4.3 0.8 1.7 1 3.5 1.6 5.3 0.5 1.7 1 3.7 1.9 5.2 0.5 1 2.8 3.2 4 3.1 0.9-0.1 1.9-3.6 2.2-4.3l2.1-5.4c1.7-4.1 3.9-6.9 3.7-11.5-0.2-4 1-7.7 1.2-11.6 0.1-2-0.9-3.1-1.5-4.9-0.7-1.9-0.1-4.4-0.2-6.4-0.2-8.4-1.3-17.9-4.1-25.9-1.4-3.9-3.1-8.7-5.8-11.8-2.7-3-6.9-3.9-10.7-4.7-10.1-2-20.4-0.2-30.3 1.8-9.4 1.8-17.3 7.8-25.2 12.9-4.2 2.7-8.2 5-12.7 7-1.7 0.8-3.5 1.6-5 2.8-1.6 1.2-2.4 3.1-4 4.3-0.6-3.3 3.1-5.6 5.6-6.8 3.6-1.9 7.4-3.2 10.9-5.4 7-4.5 13.8-9.8 21.5-13.1 1.8-0.8 3.6-1.4 5.5-1.9 1.2-0.4 3.5-0.6 4.4-1.6 0.5-0.5 0.2-1.3 0.4-1.9 0.3-0.9 0.8-1.6 1.1-2.5 0.6-2.1 0.3-4.1 0.3-6.3 0-1.9 0.9-3.5 0.7-5.4s-0.7-3.7-1.2-5.6c-1.1-4.1-1.3-8.7-3.9-12.2-2.3-3-4.1-5.7-7.4-7.7-1.2-0.7-3-1.4-3.2-3-0.3-1.5 0.6-2.5 1.2-0.7 0.4 1.3 2.1 1.6 3.2 2.2 1.5 0.7 2.9 1.8 4 3.1 2.5 3 4.8 6.1 6.1 9.8 1.3 3.8 2.1 7.8 2.9 11.7 0.4 2 0.6 4.1 0.1 6.2-0.5 2-0.2 3.7-0.3 5.7-0.1 1.8-0.6 3.6-1.5 5.3-1 1.9 2.3 0.9 3 0.8 4.6-0.7 9.3-1.6 13.9-1.8 7.1-0.4 17.5 0.5 22.6 6.2 5.3 5.8 6.5 15 8.3 22.3 1 4.2 1.7 8.4 1.9 12.7 0.1 2.2 0 4.4 0.1 6.5 0.1 2.3 0.8 3.6 1.4 5.6 1.2 3.6-0.5 8.3-0.8 11.9-0.1 2 0.1 4.1-0.3 6.1-0.4 2.2-1.8 4.3-2.7 6.3-1.7 3.5-4.5 7.4-5.3 11.2-0.4 1.7 0 3.4-0.5 5.2-0.6 2-1.7 3.7-2.9 5.4-5.1 6.9-10.4 13-14.1 20.7-1.3 2.8 0.7 6.7-0.9 9.3-0.6 1-1.9 0.5-2.8 0.4-1.1-0.1-0.8 1.5-1.9 1.9-1.8 0.7-3.8 1-5.7 0.8s-3.5-1.1-5.4-1.5c-1.7-0.3-3.6 0.4-5.2 0.4-2.4 0.1-4.8-0.3-7.2-0.3-4.6 0.1-8.9 1.4-13.4 2-4.3 0.6-9 1-13.4 0.9-3.8-0.1-7.4-1.4-10.6-3.5-3.5-2.2-7.5-2.9-11-5-3.1-1.8-6.1-4.2-8.4-7-1.1-1.2-2-2.6-2.7-4-0.8-1.5-1.1-3.7-2.2-5-1-1.1-2.7-1.8-3.9-2.9-1.4-1.3-2.5-2.9-3.5-4.6-1.9-3.5-3.7-6.9-7-9.3-1.1 2-1.5 4.2-2.1 6.3-0.5 1.9-1.4 4-1.6 6-0.6 5.1-1.9 10.1-2.8 15.2-0.9 4.7-0.8 9.6-1.8 14.3-0.4 1.6-0.8 3.5-2.2 4.5-1.5 1.1-2.9 0.3-4.5 0.3 1.1 3.1 3.2 6.7 6.6 7.6 4 1 5.4 2.6 7.9 5.7 1.4 1.7 6.3-0.8 8-1.1 2-0.4 4.1-0.7 6.1-0.8 1.5-0.1 3.3 0.2 4.7-0.3 1.7-0.6 0.4-4.4 0.3-5.6-0.1-2.6 1-4.1 3.2-5.4 3-1.6 6.5-1.4 9.4-2.9 1.3-0.7 2.3-1.8 2.9-3.2 0.4-1 1.7-4 2.9-2.1 1.3 1.9-1 7-2.1 8.8-0.8 1.3-2.4 2.1-3.1 3.5-1 1.9-1.4 2.9-3.4 4.1-6.3 3.4-11.8 11.2-19.8 9.7-3.4-0.6-7 0.2-10.3-0.8-3.2-0.9-6.9-3-9.7-4.9-3-2-4.5-5.1-6.8-7.8-2.6-2.9-5.8-5.2-8.5-8.1-5.6-6-12-10.6-18.5-15.5-1.3-1-1.9-2.6-2.3-4.1-0.2-0.8-0.3-1.6-0.5-2.4-0.1-0.4 0.5-0.9 0.4-1.3-0.1-0.3-3-0.9-3.5-1.2-1.6-1-2.6-2.5-3.6-4-1.1-1.6-2.1-3.3-2.9-5-0.4-0.9-0.9-4.2-1.8-4.6-0.8-0.4-3.4 1.3-4.2 1.7-2 0.8-4 1.8-6.2 1.1-3.6-1.1-6.7-2.2-10-4-3.4-1.9-7.5-2.1-10.7-4.6-6.4-5.1-10.1-12.1-14.8-18.6-2.2-3.1-4.5-6.2-6.2-9.6-1.9-3.7-3.2-7.9-4.4-11.8-1.2-4-1.2-7.9-0.9-12.1 0.1-1.9 0.8-3.7 0.8-5.5 0.1-2.1-1.1-3.4-1.3-5.4-0.4-3.6-0.1-7.6 0.6-11.2 0.3-1.6 0.1-3.4 1-4.9 0.9-1.6 1.5-3.2 2.4-4.8 1.7-3 4.4-4 7.1-5.7s3.9-4.9 7.2-5.9c1.5-0.4 2.9-0.1 4-1.4 1-1.2 2.3-2.1 3.7-2.7 3-1.2 6.5-1.1 8.8 1.4-3.5-0.4-6.6-1.3-9.7 0.9-1.2 0.8-1.9 2.6-3.4 3-1.8 0.4-3.3 0.1-4.9 1.2-1.3 0.9-2 2.2-3 3.4-1.1 1.3-2.6 2-4.1 2.7-1.3 0.6-2.5 1.5-3.5 2.6-1.2 1.4-1.1 3.8-2.3 4.9-1.2 1.2-1.4 2.9-1.5 4.5-0.1 1.8-1 3.4-0.9 5.2 0.1 2 0.1 3.8 0 5.8s1.6 3.3 1.7 5.2c0.1 1.8-0.8 3.5-1.1 5.3-0.3 2-0.4 4.1-0.3 6.1 0.1 4.1 1.9 7.9 3.1 11.8 2.5 7.8 7.5 13.8 12 20.6 4.1 6.2 9.1 13 16.4 15.8 1.3 0.5 3.7 0.6 4.7 1.5 1.3 1.2 3 2 4.7 2.6s3.5 1.4 5.3 1.7c2.5 0.4 4.2-0.7 6.4-1.6 1.2-0.5 3.2-0.6 2.7-2.4-0.5-1.7-0.9-3.5-1.3-5.3-0.4-1.7-0.5-3.7-1-5.3s-3.1-1.9-4.4-2.5c-3.7-1.5-7.3-4.2-9.7-7.4-2.5-3.3-2.4-7.8-4.6-11.4-2.3-3.8-5.7-7.6-9-10.5-3.5-3.1-2.3-6.8-2.8-10.9-0.5-4.2-2.4-8.4 0.7-12 2.3-2.7 5.2-4.9 8.9-5.3 4.2-0.5 9.3-0.2 13.5 0.5 2.2 0.4 4.4 1 6.6 1.8 1.7 0.6 4 2.1 5.8 2-0.9-1.7-2.8-3.1-4.1-4.5-1.5-1.5-3-3.1-4.6-4.6-1.5-1.5-3-3.1-4.5-4.6-1.3-1.4-1.9-3.7-3.2-5-2.5-2.3-3.2-5.8-4.8-8.7-0.9-1.5-0.7-4.1-0.9-5.8-0.3-2.5-0.5-5.1-0.7-7.6-0.6-8.8-0.7-18.1 1.2-26.7 0.4-2 1-4 1.5-6 0.4-1.6 0.6-3.8 1.6-5.2 2.3-3.1 5.7 0.7 8-1.7 2.4-2.5 3.4-6.2 5.7-8.8 2.4-2.7 6.3-2.9 9-5 3-2.3 6.2-4.4 9.4-6.4 3.8-2.4 7.7-3.1 12-3.7 4-0.5 8.3-0.7 12.2 0.2 1.5 0.4 3 1.1 4.1 2.2 1.6 1.7 3.3 2 5.4 2.8 7.1 2.7 13.2 7.7 15.9 14.9 0.4 1.1-0.8 2.1-1.6 1.1-1-1.3-1.5-2.7-2.3-4.1-1.3-2.2-3.3-4-5.2-5.6-4-3.4-9.2-4.5-13.4-7.4-2.5-1.8-4.5-2.3-7.6-2.6-3-0.3-6.1-0.1-9.1 0.2-6.3 0.6-11.2 3.8-16.3 7.4-2.5 1.8-4.5 3.1-7.4 4.2-2.2 0.8-3.9 2.4-5.2 4.2-1.6 2.1-3 4.5-4.6 6.6-1.9 2.6-3.1 1.7-5.9 1.6-1.8-0.1-2.3 1.6-2.6 3.1-0.7 2.9-1.6 5.7-2.3 8.6-0.9 0.6-2.2 17.1-2 17.1zm100 165.5c0.2 1.9 0.1 4.2 0.7 6 2-0.8 3.8-2.5 5.6-3.7 1.9-1.3 2.7-2.4 4-4.2 1.1-1.5 2.7-2.3 3.5-4.1 0.6-1.3 1.7-3.6 1.4-5.1-2.2 2.6-3.4 4.7-7.1 5.2-2.9 0.5-8.6 1.9-8.1 5.9zm35.6-23c2-0.4 6.1-0.5 7.5-1.8-1.3-1-3.2-1.3-4.5-2.2-1.7-1.2-3.1-2.7-5.2-3.1-2.2-0.4-4 0.4-5.9 1.4-2.1 1.1-4.5 1-6.7 1.8 3 3.4 10.5 3.6 14.8 3.9zm52.2-42.2c0.7 2.8 2.4 6.7 4.6 8.7 1.6 1.5 5.4 3.1 7.5 2.3-2.3-2.1-4.7-2.8-5.9-6.1-0.7-1.9-1.3-3.8-2-5.7-0.5-1.3-0.8-3.2-2.2-3.8-0.9 1.6-1.9 2.8-2 4.6zm-122 65.8c-1.1-2.2-2.8-4-4.3-6-0.5-0.6-1.1-1.1-1.6-1.8-0.4-0.7-0.1-1.6-0.5-2.1-1.4-1.8-4-3.4-5.9-4.7-2.4-1.7-5.2-4.1-8-5 1.1 1.8 3.3 3 4.7 4.4 2 2 3.9 4.1 6 6.1 1.7 1.7 3.6 3.2 5.3 4.8 1.3 1.3 2.5 3.9 4 4.8 0.1-0.2 0.2-0.4 0.3-0.5zm29.2 7.3c-0.1-0.7-11.6 1.4-12.8 2.5 1.2 0.6 2.6 0.1 3.9 0.2 1.5 0.2 2.8 0.8 4.3 0.8 3.1 0 5.4-1.5 7.8-3.3-1.1-0.2-2.1-0.2-3.2-0.2zm-27-4.3c-0.6 0.3 3.3 2.5 3.8 2.8 1.5 0.9 3.6 2.8 5.4 2.7-1.3-4.2-5.4-4.7-9.2-5.5zm107.6-19.5c-1.4 0.2-3.8 0-4.9 1 1.9 1.5 6.3 1.4 8.2 0-0.7-0.8-2.2-0.8-3.3-1zm-142.3-13.3c-0.2 2.1 2.1 3.3 3.6 4.3 1.6 1.1 3.5 2.9 5.4 3.6-0.5-1.5-3.1-3.1-4.3-4.1-1.5-1.2-3.1-3-4.7-3.8zm55.7-13.2c-1.1 0.5 1 1.8 1.4 2.1 1 0.8 2.5 2.8 3.8 2.7-1.2-1.7-3.5-3.6-5.2-4.8z"/>
	<path d="m146.3 344.3c0.5-1 1.6-2.5 1.6-3.6 0-2.6-2 1.4-2 1.5-1.4 2.5-4.1 1.5-3.9-0.9 0.4-0.7 0.8-1.4 1.4-2 1.1-1 1.5-0.2 2.7-0.7 0.8-0.3 1.2-1.3 2-1.6 1.1-0.4 1.9-0.3 2.8-1.1-1.6-1.3-3-2.7-4.4-4.2-0.7-0.8 0.2-2.3 1.3-1.9 1.3 0.6 2.8 0.1 4.2 0.5 1.9 0.6 1.5 1 2.8-0.7 0.9-1.1 1.8-2.3 1.9-3.8 0.1-1.4 1.6-2.2 2.9-2.2 2.5 0.1 2.4 5.5 0.7 6.5-1.8 1.1-2.4-0.2-3.7-1-1-0.6-2.3 2.8-2.7 3.3-0.5 0.8-2.7 3.4-2.1 4.3 0.7 1.1 2.1 1.7 1.7 3.3-0.3 1.4-2.1 1.4-2.5 2.5s1.2 2.2-0.1 3.4c-1.1 1-2.6 0.3-2.7 2.2-0.2 1.9-0.6 3.8-0.4 5.6 1.5-0.8 3.2-2.4 5-1.7s1.2 2.6 2.3 3.8c1.7 1.9 2.5 0 2.7-1.7 0.2-1.8-1.3-0.9-2.4-0.8 1.1-2.4 5.1-3.5 5.7-6 0.3-1.2-1.2-1.8-1.4-2.9-0.2-0.9 1-2.2 1.6-2.7 1.9-1.4 5.1-0.9 5.6 1.6 0.6 3.2-2 3.5-3.9 5-1 0.8-1 2.1-1.6 3.1-0.7 1.2-2.1 2.4-2.3 3.8-0.4 2.7-1.4 5.3-3.4 7.2s2.5 1.9 3.4 3.1c1.3 1.8-0.9 3.9-1.6 4.9-2.4 0.1-3 2.7-5.2 2.7-0.8 0-2.1-0.8-2.6 0.2-0.6 1.2-1 2.4-2.2 3.2-2.2 1.5-5.7 4-8.5 3.3-2.3-0.6-4.9-3.2-4.1-5.7 0.9-2.7 2.7-1.6 4.4-3.3 1.9-1.8 1.4-4.5-1.2-5.4-2.3-0.8-7-0.4-9.2 0.6-2.5 1.1-2.9 3.7-4.2 5.8-0.1-0.9-0.3-1.7 0-2.6 0.2-0.6 0.8-1.3 0.2-1.7-1.2-1-0.5 0.6-1.5 0.2-0.5-0.2-1.1-1-1.5-1.4-1.1-1.1-2.2 0.4-2.1 1.6 0.1 1.6 2.3 2.2 2.7 3.7-1.8 0.2-2.8-1.4-4.5-1.7-1.3-0.2-4.6 1.3-3.9-1.7 0.4-2-1.7-3.9-2.6-5.4-0.4-0.6-1.3-2.7-2.3-2.6-0.7 0-1.7 0.5-2.1-0.4-0.9-1.7 0.1-2.8-0.2-4.5-0.2-0.8-1.4-4.2-2-4.5-0.9-0.5-3.7-2-1.5-3.2 1.1-0.6 3.6-0.2 3.6-1.5 0-2.6 0-5.1 0.1-7.7 0.1-1.7-3-2.6-1.4-3.8 0.9-0.7 4.6-1.7 5.2 0 0.6 1.9-2.4 2-3 3.1s0 3.3 0 4.5c0.1 2.2 0.6 4.4 1.4 6.5 0.9 2.2 2.3 3.9 3.8 5.6 1.6 1.8 2.9 3.8 4.8 5.4-1.3-5.4-4.8-10.8-2.2-16.5 0.5 1.8 0.3 3.8 0.6 5.7 0.3 2.2 0.9 4.3 1.7 6.3 1.4 3.4 3.2 8 5.7 10.7-0.4-3.1-2.7-6.4-4-9.3-1-2.3-3.8-7.7-2.1-10.1 1.3 1.6 1.5 4.9 2.4 6.9 1 2.4 2.2 4.6 3.3 7 0.9 1.9 1.5 3.8 2.3 5.7 0.3 0.7 1.4-0.2 1.6-0.5 0.6-0.9-1.2-3-1.6-3.8-1.3-2.4-2.4-4.7-3.3-7.3-0.3-0.8-0.4-1.6-1-2.2-0.7-0.8-2.1-0.9-2-2.2 0.1-1.1 1.2-1.7 1.7-2.6 0.4-1 0.5-2 0.4-3.1-0.1-2.1-0.7-5.6 0.7-7.3 1.1 1.7 0.5 4.7 0.4 6.7 0 0.8-0.6 2.5 0.2 3.1 0.4 0.3 1.8 0.7 1.8-0.1 0.2-2.4 0.2-4.9 0.4-7.4 0.2-2.9 0-6.2 1-8.8 0.8 1.9 0.4 3.9 0.2 5.9-0.2 1.8-1.1 5 0.8 6.2 1.2 0.8 4.4 0.3 3.8 2.2-0.8 2.7-2.2 2.6-4.6 1.9 0.1 2.1 0.7 4.1 1.2 6.1s1.8 4.9 1 6.8c-2.7-1.8-2.2-6.8-3.4-9.5-2.7 1.9-1.3 3.6-0.1 6.2 0.8 1.7 2.3 7.5 4.4 7.8 1.2 0.2 2.1-0.2 1.8-1.3-0.4-1.5-1.4-2.7-1.7-4.4-0.3-2.1-0.5-6.3 0.9-8 1 1.9 0.4 4.4 0.7 6.5 0.2 1.9 0.8 4.4 1.9 6 0.9 1.3 4.1 1 5.4 1.2 2.6 0.3 1.7-2 1.6-3.8-0.2-3.6 4.2-2.8 5.4-5.6 0.8-1.7 0.7-3.8 1.1-5.6 0.8-1.9 1.1-3.6 0-4.9zm7 10.7c-0.5-1.2-0.6-2-2.1-1.3-1.4 0.6-2.1 1.7-3.2 2.5-1.3 1-2.7 1.3-4.1 1.9-1.8 0.8-1.6 2.5-1.7 4.2-0.1 0.8-0.3 2.2 0.6 2.7 1 0.5 2.2-0.4 3.2 0.1 1.4 0.7-1.1 3.2 1.4 3 0.8-0.1 2.4-1.5 2.9-0.3 0.4 1.2 0.3 1.9 1.3 2.8 1.2 1.1 2-1.2 2.6-1.9 0.8-1 2.2 0.3 3.2-0.9 1.2-1.4 0.3-2.2-1.1-2.4-0.7-0.1-3.2 0.2-3-1.2 0.3-1.6 1.7-3.2 2.6-4.5 1.4-2.5-3.5-1.6-2.6-4.7zm-13 22.7c3.6-1.2 7.3-1.9 8.3-6.1 0.4-1.5-0.9-1.1-2-1.2-1.8-0.2-1.8-1.3-2.6-2.6-1.2-2-2 1.1-2.3 1.7-0.5 1.4-1.5 2.6-2.9 3.2-1.4 0.5-3.2 0.4-2.6 2.5 0.5 1.6 2.4 2.5 4.1 2.5zm-29.5-19.5c0.5 1.4 6.8 11.2 7.4 6.6 0.3-2.1-2.1-4.2-3.4-5.7-1.5-1.7-3.1-3.4-4.4-5.3-0.7-0.9-1.3-1.9-1.9-2.9-0.3-0.6-0.8-2.5-1.4-2.9-1.4-0.8-0.8 3.8-0.6 4.2 1 1.8 2.7 1.6 4.1 2.7 1.1 0.9 0.4 2.3 0.2 3.3z"/>
	<path d="m157.4 370.4c1.9-1.4 9.4-7.7 10.1-2 0.3 2.4-2.5 3.4-4.2 4.3-2.7 1.5-5.5 3-8.3 4.3 4.8 0.2 9.9-2.8 14.1-4.9 1.5-0.8 2-3.6 3.5-4.7 0.8-0.6 2.2-1.3 3-0.4 0.9 1 2.2-0.1 2-1.2-0.1-1.4 0.1-2.8 1.5-3.3 2.2-0.8 4.1 0.9 6.1-0.2 2.1-1.1 3.9-2.7 5.9-4 2.2-1.4-0.3-2.7 0.7-4.5 0.9-1.5 3-2.7 4.7-2 1.5 0.6 0.9 4.6 0 5.6-0.5 0.6-1.2 1.5-2 1.8-0.9 0.3-1.6-0.3-2.5-0.2-1.7 0.3-3.7 2.6-5 3.6-0.7 0.5-1.4 1-2 1.6-0.8 0.7-0.3 1.3-0.3 2.2-0.1 2.2-3.4 1.1-4.6 1.2-2.3 0.2-4.1 2.1-5.7 3.5-1.8 1.6-4.7 3.5-5.7 5.6 1.4 0.4 9.9 1 10.2-0.5 0.2-1.1 0-2.5 1.4-2.9 2.1-0.6 2.6 1.3 2.9 2.9 0.4 1.8 6.4 1.8 7 0.3 0.6-1.4-0.1-2.3 1.6-3.3 0.6-0.3 1 0 1.2 0.6 0-0.2 2.2-0.2 2.3-0.2-0.2 1.2-0.6 1.3-1 2.2-0.4 0.8 2.1 0.1 2.1 0.8 0.1 1.3-7.5 1.8-8.5 1.9-1.5 0.2-3.4-0.3-4.8 0.1-0.4 0.1-1.5 0.8-2 0.7-0.8-0.2-1.6-0.2-2.4 0.1-2.3 0.8-4.7 3-6.3 4.4-3.4 1.4-7.1 1.7-10.8 1.6-2.9-0.1-7.8 0.7-10-1.3 5.5-1.5 11.8 1.4 17.2-0.9-0.9-1-2.1-2-1.4-3.4 0.7-1.3 2.6-1.7 3.8-1.1 0.8 0.4 1.5 2.5 2 2.6 1.1 0.1 4.5-2.1 5.1-2.9-1.5-0.8-4-0.3-5.7-0.3-2.3-0.1-4.7-0.1-7 0.2-4.5 0.6-9.6 2.9-14 1.4 0.4-0.1 2.5-0.2 2.6-0.7 0.1-0.6-1.5-2.2-1.7-2.8-0.1-0.4 3.3-1.1 3.7-1.2 1.6-0.7 3.1-1.6 4.6-2.6 1.1-0.7 2.5-1.2 2.4-2.7 0-1.1-0.3-2.1-1.5-1.2-2.2 1.7-6 6.2-9 6 1.1-1.8 3.8-2.8 4.7-4.1zm12.5 3.3c-1.6 0.2-3 1.1-4.5 1.7-1.4 0.6-3.4 1-4.5 2 2.8 1.2 7.4-1.7 9-3.7z"/>
	<path d="m130.3 309c0.2 4 0.3 8.1 0.6 12.1 0.1 1.8 0 3.2-0.9 4.8-0.6 1-2.1 3.1-3 1-1.2-2.9 0.1-6.3 2.5-8.3 1.1-0.9 0.4-4.1 0.3-5.3-0.2-2.1-0.4-4.2-0.4-6.3 0.1-4.1 1.8-7.7 3.3-11.4 1.6-3.9 3.3-7.7 5.4-11.3 1-1.8 2.1-3.6 3.1-5.5 1-1.8 1.1-2.4 0.8-4.4-0.1-0.7-0.6-4.8 0.5-4.3 0.7 0.3 0.7 3.5 1 4.3 1.2-0.7 1.9-1.9 3.1-2.7 1.4-1 3.1-1.5 4.6-2.3 1.6-0.9 3-2.2 4.8-2.8 1.5-0.5 3.4 0 4.8-0.8 3.1-2 7.1-1.9 10.7-2.1 4-0.3 8.1-0.8 12.1-0.4 3.3 0.4 6.9 1.5 9.3 3.9 2.2 2.2 2.3 5.4 4.4 7.6 1.1 1.1 2.3 1.4 3.7 2.1 1.8 0.9 0.3 2.1-1.2 1.5-3.5-1.3-5.1-4-6.4-7.3-2.7-7.1-12.7-6.8-18.9-6.2-3.7 0.3-8 0-11.5 1.3-1.8 0.7-3 1.2-5 1.3-1.8 0.1-3.1 1-4.6 1.9-3.4 2-6.9 3.4-9 6.9-2.2 3.7-4.4 7.3-6.3 11.1-1.1 1.7-9.7 21.2-7.8 21.6z"/>
	<path d="m151.1 401.4c2.1 1.9 4.5 1.7 6.8 2.9-1.5 1.3-3.2-0.1-4.6 0.8-1.5 0.9-0.4 3.7-3.1 3.6-1.4 0-4.4-2.7-2.1-3.6 1.4-0.6 2.6-1.7 1.1-2.7-1.8-1.2-3.5-2.7-5.2-4.1-0.4-0.3-1-1.1-1.5-1.4-0.5-0.2-0.5 1.2-0.7 1.4-1.3 1.8-3.3 0.6-1.9 3.4 1 2 1.8 5 3.4 6.6 1.2 1.2 2.4 2 2.3 3.9 0 2.2-1.4 3.6-3.2 1.9-0.7-0.6-2-1.8-1.9-2.7s1.3-1.8 1-2.7c-0.3-0.8-1.6-1.7-2.2-2.3-0.7-0.8-1.4-1.7-2.1-2.5-1.1-1.1-3.6-2-3.2-3.9 0.2-1 1-1.6 1-2.7 0-1.4-0.1-2.8-0.1-4.1-0.1-2.1-0.8-4.9 1-6.5 1.9-1.6 3.7-0.8 5.5 0.3-0.9 0.6-2 1-2.4 2-0.5 1-1.1 1.9-2.2 2.1-2.3 0.5-0.9 6.8 0.2 8.3 0.6-2.2-0.1-5.4 1.1-7.3 0.3 0.7 0.1 2.7 1.1 2.8 1.8 0.2 1.1-2.2 1.2-3.4 1.5 2 2.8 4.1 4.6 5.9 1.7 1.6 4.3 2.4 6.1 4z"/>
	<path d="m142 341.2c-0.4 1-2 3.4-1.5 4.4 0.6 1.2 1.9-0.3 2.5-0.9-0.8 3.1-2.7 5.7-3.6 8.7-0.9 3.1-0.4 6.3-1 9.4-2.6-0.7-0.7-8-0.5-9.9 0.2-2.1 0.6-4.2 1-6.2s1.3-4 1.4-6.1c-1.2 0.5-1.6 1.8-2.9 2.3-0.6 0.3-1.3 0.3-2 0.2-0.4-0.1-1.6 1.6-1.8 1.9-1.6-2.3-0.8-5-0.4-7.6 0.2-1.1 0.3-2.2 0.6-3.2s1.1-1.8 1.2-2.8c-2 0.6-1.8 4-4.2 4.1-1.1 0-2.7-0.5-2.6-1.9 0.2-1.3 1.8-2 1.5-3.3-0.4-1.9 4.3-0.8 4.9-2.2 1.1-2.6 4.6-0.5 6 1 0.8 0.9 0.2 2 0.6 3.1 0.2 0.6 0.2 2.7-1.1 1.5-0.6-0.5-1.7-2.8-2.6-2.7-1.3 0.1-2 3.2-2.2 4.1-0.3 1.4-0.4 2.9-0.7 4.3-0.2 1 1.9-1.3 2.1-1.5 0.7-1.1 0.8-2.5 2.5-2.8 1.3-0.3 1.8 2 2.3 2.8 1-1.2 1.6-3.5 2.9-4.3 0.1 2.7-2.4 5.4-2.4 7.6z"/>
	<path d="m181 361c-3.1-0.5-3.5-0.6-4.3-3.6-1.3 0.9-2 2.2-2.9 3.4-1.1 1.4-2.6 2.4-4 3.4s-2.7-0.5-4.2-0.1c-1.8 0.5-2.9 0-4.6 0.3 0.4-1 1.5-2.3 1.5-3.3 0-1.1-1.1-1.5-0.8-2.6 0.4-1.6 2.1-3.9 3.9-2.4 1.9 1.6-2.3 3.4 0.4 4.5 1 0.4 2.9 0 3.6 0.9 1.1 1.3 1.8 0.5 2.6-0.5 1-1.2 1.9-2.4 2.9-3.6 1.1-1.2 1.2-1.6-0.3-2.2-2.7-1 1.2-4.6 3.1-3.9 1.1 0.4 1.1 2 1.5 2.9 0.6 1.2 2.1 1 3 1.7 2.5 1.8 2 5.3-1.4 5.1z"/>
	<path d="m183.6 382.1c1.9-0.4 7.1-2.1 6 1.5-0.3 1.1-0.7 2.2-1.6 3-1.3 1.1-1 0.6-1 2.2 0.1 1.1-1.1 2.2-2 2.6-1.3 0.5-2.3-0.7-3.6-0.4-2.3 0.5-5.8 2.1-7.9 0.7 1.3-1.2 3.6-1.4 5.3-1.5 2.1-0.1 3.6-1.8 5.4-2.8 0.1-0.1-0.5-3.3-0.7-3.5-0.5-0.4-1.2-0.1-1.7-0.1-0.9 0.1-1.4-0.4-2.1-0.9 0.5-0.3 3.7-1.8 3.9-0.8z"/>
	<path d="m170.8 402.9c0.8 0.1 2.5 0.7 3.2 0.2 1.2-0.7 1.7-1.7 3.2-2 2.2-0.4 5.2 0.6 3.9 3.5-1.1 2.5-4 4.4-6.1 2.1-0.8-0.8-0.9-1.7-2.3-1.7-1.6 0.1-2.2-0.5-3.3-1.6 0.5-0.1 0.9-0.3 1.4-0.5z"/>
	<path d="m161.8 334.2c-0.5 1.3-1.8 7.4-4.4 5.6-1-0.7-0.1-1.9-0.6-2.8-0.3-0.5-1.7 0.7-2.4 0.3-2.1-1.4 0.5-4.9 2-5.5s1.4 0.5 2.5 0.8c1.5 0.2 2.5-0.5 2.9 1.6z"/>
	<path d="m165.3 393.3c-1.8-0.1-2.4 0.2-3.9 1.1-1.1 0.7-2.6 0.6-3.3-0.7-0.9-1.6-1.1-1.9-2.8-2.8-1.6-0.9-3.3-1.6-4.1-3.2 3.5 0.5 6.6 2.6 10 3.3 1.9 0.4 3.8 0.5 5.7 0.5 1.4 0 2.9-0.3 4.1 0.4-0.5 0.7-5.5 2-5.7 1.4z"/>
	<path d="m163.7 406.8c-3.8 0.1-0.9-2.5-1.6-4.1-0.4-1-1.8-1-1.3-2.4 0.4-1.1 1.5-1.8 2.7-1.9 1-0.1 2.8 0.3 2.7 1.7-0.1 1.1-1.1 1.8 0.5 2.1 3.9 0.8-1.1 4.4-3 4.6z"/>
	<path d="m159.1 343.7c0 1.7-0.9 3.7-2.9 3.2-2.2-0.6-2.4 1.6-4.2 2.2 0.2-1.2 1-2 1.3-3.2 0.5-1.6 0.1-3.2 1-4.7 2.1-3.2 4.1 0.9 4.8 2.5z"/>
	<path d="m167.8 415.5c-2.7-0.2-5.4-0.9-7.7-2.5-0.9-0.6-7.3-4.1-5.7-5.6 0.9-0.9 6.5 3.5 7.5 4.1 1.4 0.9 2.9 1.8 4.5 2.2 1.7 0.4 3.3-0.1 4.9 0.2-0.9 1.2-2.1 1.3-3.5 1.6z"/>
	<path d="m171.2 390.8c-2.1-0.7-4.8 0-6.7-0.9-2.3-1.1 0.1-3.1 1.7-3.2 1-0.1 2 0.4 3.1 0.3 1.5-0.1 2.3 0 3.5 0.9 0.7 0.5 1.4 0.6 1.1 1.5-0.5 1.3-1.7 1.2-2.7 1.4z"/>
	<path d="m134.5 391.6c-0.3 2.2-0.3 4.7-1.3 6.8-1.1-2.2-0.3-4.7-0.3-7.2 0-1.8-2.9-1.1-3.9-2.3-2-2.2 1.7-3.4 3.4-2.6 0.8 0.4 1.4 0.9 1.6 1.7 0.2 0.7 0 3.5 0.5 3.6z"/>
	<path d="m163.3 396.7c-2.9 1.7-5.3 0.8-8.2-0.4-2.7-1.1-6.6-1.9-7.8-4.7 2.7 0.1 5 2 7.5 2.9 2.6 0.9 5.9 1.9 8.5 2.2z"/>
	<path d="m151.1 401.4c-3.2-3-6-6-7.2-10.2 2.3 2.5 4.1 5.5 6.8 7.7 2.6 2.1 5.7 2.3 8.5 3.7-2.8 0.8-5.4-0.4-8.1-1.2z"/>
	<path d="m119.1 375.8c-1-0.2-5-0.2-4.9-1.7 0-0.9 0.5-2.8 1.6-2.6 1.4 0.2 3.4 0.8 3.9 2.2 0.3 0.9 4.7-0.4 5.5-0.2-1 1.9-5.9 1.5-6.1 2.3z"/>
	<path d="m149.7 382.5c0.1 3.4-4.1 6.2-7.3 5.4 1.3-2 4.6-1.7 5.6-3.8 1.1-2.3-0.6-5.1 0.6-7.4 1 1.7 0.9 3.9 1.1 5.8z"/>
	<path d="m138 345.9c-0.4 3.1-0.8 6.1-1.3 9.2-0.3 2-0.4 5.4-2.4 6.5-0.8-2.1 0.8-5.8 1.2-8 0.5-2.4 0.6-6.6 2.3-8.3 0.1 0.1 0.2 0.4 0.2 0.6z"/>
	<path d="m202.9 376.1c0 0.9-0.5 4-2 3.4-0.9-0.3-3.4-1.6-2.9-2.8 0.7-2 4.9-4.5 4.9-0.6z"/>
	<path d="m131.1 392.7c-0.3 1.1-0.3 2.7-1.5 3.2-1.1 0.5-2.6-0.1-2.7-1.4-0.1-1.2 0.3-2.4 1.4-3 1.7-1 1.9-0.1 2.8 1.2z"/>
	<path d="m112 368.5c-1-0.1-8.1-3.4-6.3-4.4 1.2-0.6 3.6 1 4.6 1.5 1.5 0.7 3.7 1.6 1.7 2.9z"/>
	<path d="m124.3 333.5c0 2.7-4.2 2.9-4.4 0.5-0.2-2.6 4.3-3.9 4.4-0.5z"/>
	<path d="m132.6 375.7c0.1 2-3.2 4.4-4.1 1.7-0.9-2.6 4.1-5 4.1-1.7z"/>
	<path d="m129.3 368.7c2.9 0 2.8 4.7 0.3 4.6-2.1-0.1-3.3-4.6-0.3-4.6z"/>
	<path d="m119.9 342c0 3.3-3.7 1.9-3.7-0.7 0-3.5 3.8-2.3 3.7 0.7z"/>
	<path d="m146.2 344.3c-0.8 2.4-1.6 4.8-2.5 7.2-0.4 1.2-1 2.1-1.7 3.2-0.2 0.2-0.9 0.2-0.7-0.2 1.7-3.7 2.3-7.2 4.9-10.2z"/>
	<path d="m115.4 340.5c-0.2 3.1-3 2.8-2.7-0.3 0-0.2 0.7-2.7 1.2-2.5 1.3 0.5 1.5 1.4 1.5 2.8z"/>
	<path d="m172.8 383.9c1.6-0.2 3.7-0.1 2.5 2.5-0.2 0.5-1.2 1.6-1.9 0.9-1.2-1.2-1.3-2-0.6-3.4z"/>
	<path d="m135.9 382.6c-0.2 1.7-2.7 2.8-3.2 0.7-0.7-2.8 3.4-3.6 3.2-0.7z"/>
	<path d="m163.3 396.8c0.2-0.3 0.8-2 1.3-1.9 1.1 0.1 2.2 0.6 3 1.3 1.2 1-0.8 1.6-1.5 1.7-1 0.1-2.2-0.5-2.8-1.1z"/>
</g>
</svg>